<?xml version="1.0" encoding="UTF-8"?>
<svg width="20.523mm" height="16.875mm" version="1.1" viewBox="0 0 20.523 16.875" xmlns="http://www.w3.org/2000/svg">
 <style/>
 <g transform="translate(-82.828 -112.65)">
  <path d="m83.617 113.48h18.944c0.43414 0 0.78934 0.36886 0.78934 0.81969v14.406c0 0.45083-0.3552 0.81969-0.78934 0.81969h-18.944c-0.43413 0-0.78933-0.36886-0.78933-0.81969v-14.406c0-0.45083 0.3552-0.81969 0.78933-0.81969z" fill="#202021" fill-rule="evenodd"/>
  <g fill="#aabedf" fill-rule="evenodd">
   <path d="m88.146 118.57h13.241c0.0987 0 0.1776 0.082 0.1776 0.18443 0 0.10246-0.0789 0.18443-0.1776 0.18443h-13.241c-0.09867 0-0.1776-0.082-0.1776-0.18443 0-0.10246 0.07893-0.18443 0.1776-0.18443z"/>
   <path d="m88.146 121.52h11.722c0.09867 0 0.1776 0.082 0.1776 0.18443 0 0.10246-0.07893 0.17419-0.1776 0.17419h-11.722c-0.09867 0-0.1776-0.0717-0.1776-0.17419 0-0.10246 0.07893-0.18443 0.1776-0.18443z"/>
   <path d="m88.146 124.47h11.722c0.09867 0 0.1776 0.082 0.1776 0.18444 0 0.0922-0.07893 0.17418-0.1776 0.17418h-11.722c-0.09867 0-0.1776-0.082-0.1776-0.17418 0-0.10247 0.07893-0.18444 0.1776-0.18444z"/>
   <path d="m88.146 127.42h9.3733c0.09867 0 0.16773 0.082 0.16773 0.18443 0 0.0922-0.06907 0.17418-0.16773 0.17418h-9.3733c-0.09867 0-0.1776-0.082-0.1776-0.17418 0-0.10246 0.07893-0.18443 0.1776-0.18443z"/>
  </g>
  <path d="m85.433 118.35c-0.01973 0-0.0296 0-0.04933 0.0102l-0.0099-0.0307c-0.01973-0.082-0.0296-0.23566-0.03947-0.33812v-0.041-0.0205c-0.0099-0.0205 0-0.041-0.0099-0.0615v0.0102c-0.0099 0.0307-0.0099 0.0717-0.0099 0.10246-0.0099 0.0512-0.0099 0.0922-0.01973 0.14345 0 0.0615-0.0099 0.12295-0.01973 0.17418 0 0.0102-0.01973 0.082-0.01973 0.082s-0.01973 0-0.01973 0.0102c0 0-0.01973 0-0.0296 0.0102l-0.0099-0.041c-0.01973-0.0922-0.0296-0.18443-0.03947-0.27665 0-0.0102 0-0.041-0.0099-0.041 0 0.0102-0.0099 0.0307-0.0099 0.0512-0.0099 0.0922-0.01973 0.28689-0.0296 0.38935 0.03947 0.0205 0.0592 0.0307 0.09867 0.0512 0.0099 0.0102 0.01973 0.0205 0.0296 0.0205 0.0099 0.0102 0.01973 0.0205 0.0296 0.0307 0.0592 0.0615 0.09867 0.0922 0.13813 0.18443 0.04933 0.10247 0.06907 0.21517 0.07893 0.32788 0.0099 0.0102 0.0099 0.0205 0.0099 0.0307v0.0615c0.0099 0 0.0099-0.0102 0.0099-0.0102 0.01973-0.16394 0.01973-0.27665 0.10853-0.43034 0.04933-0.082 0.0888-0.14345 0.16773-0.20492 0.03947-0.0307 0.06907-0.041 0.10853-0.0615 0-0.10246-0.01973-0.20492-0.01973-0.30738l-0.0099-0.12296-0.0099-0.0102v0 0.0205s-0.0099 0.0102-0.0099 0.0205c-0.0099 0.0922-0.01973 0.20492-0.03947 0.29714-0.0099 0-0.0099 0.0102-0.0099 0.0205-0.0099-0.0102-0.01973-0.0102-0.0296-0.0102-0.01973-0.0102-0.01973-0.0102-0.01973-0.0205-0.01973-0.0615-0.01973-0.1127-0.0296-0.17418l-0.0099-0.10246c-0.0099-0.0307-0.0099-0.0512-0.0099-0.082 0-0.0205-0.0099-0.041-0.0099-0.0717 0-0.0205 0-0.041-0.0099-0.0615v0-0.0102 0.0307l-0.0099 0.0922c0 0.0307-0.0099 0.0717-0.0099 0.0922-0.0099 0.0512-0.0099 0.10246-0.01973 0.15369 0 0.0307 0 0.0615-0.0099 0.0922l-0.0099 0.0307-0.03947-0.0102c-0.0099 0-0.0099 0-0.0099-0.0102v-0.0205c-0.01973-0.0512-0.01973-0.10246-0.0296-0.15369v-0.041c-0.0098-0.0307-0.0098-0.0512-0.0098-0.0717 0-0.0615-0.0099-0.15369-0.0099-0.21517l-0.0099-0.0717v-0.0205-0.0102 0l-0.0099 0.0307v0.0205 0.041 0.0102l-0.0099 0.1332v0.0205c-0.0099 0.0307-0.0099 0.0922-0.0099 0.12296v0.0205c-0.0099 0.0615-0.01973 0.14345-0.03946 0.19468v0.0205zm0.1184 0.77871c0.0592-0.31763 0.18747-0.57379 0.52293-0.59428-0.0592 0.43034-0.28613 0.52256-0.52293 0.59428zm-0.10853 0c-0.0592-0.31763-0.18747-0.57379-0.52293-0.59428 0.06907 0.43034 0.28613 0.52256 0.52293 0.59428zm0.13813 0.082c0.37493 0.041 0.77947-0.14345 0.7992-0.42009h-0.296c-0.04933 0.16393-0.18747 0.30738-0.5032 0.42009zm-0.16773 0c-0.37493 0.041-0.7696-0.14345-0.7992-0.42009h0.296c0.04933 0.16393 0.18747 0.30738 0.5032 0.42009z" fill="none" stroke="#000" stroke-linecap="round" stroke-linejoin="round" stroke-width=".078933px"/>
  <path d="m85.433 118.35c-0.01973 0-0.0296 0-0.04933 0.0102l-0.0099-0.0307c-0.01973-0.082-0.0296-0.23566-0.03947-0.33812v-0.041-0.0205c-0.0099-0.0205 0-0.041-0.0099-0.0615v0.0102c-0.0099 0.0307-0.0099 0.0717-0.0099 0.10246-0.0099 0.0512-0.0099 0.0922-0.01973 0.14345 0 0.0615-0.0099 0.12295-0.01973 0.17418 0 0.0102-0.01973 0.082-0.01973 0.082s-0.01973 0-0.01973 0.0102c0 0-0.01973 0-0.0296 0.0102l-0.0099-0.041c-0.01973-0.0922-0.0296-0.18443-0.03947-0.27665 0-0.0102 0-0.041-0.0099-0.041 0 0.0102-0.0099 0.0307-0.0099 0.0512-0.0099 0.0922-0.01973 0.28689-0.0296 0.38935 0.03947 0.0205 0.0592 0.0307 0.09867 0.0512 0.0099 0.0102 0.01973 0.0205 0.0296 0.0205 0.0099 0.0102 0.01973 0.0205 0.0296 0.0307 0.0592 0.0615 0.09867 0.0922 0.13813 0.18443 0.04933 0.10247 0.06907 0.21517 0.07893 0.32788 0.0099 0.0102 0.0099 0.0205 0.0099 0.0307v0.0615c0.0099 0 0.0099-0.0102 0.0099-0.0102 0.01973-0.16394 0.01973-0.27665 0.10853-0.43034 0.04933-0.082 0.0888-0.14345 0.16773-0.20492 0.03947-0.0307 0.06907-0.041 0.10853-0.0615 0-0.10246-0.01973-0.20492-0.01973-0.30738l-0.0099-0.12296-0.0099-0.0102v0.0205s-0.0099 0.0102-0.0099 0.0205c-0.0099 0.0922-0.01973 0.20492-0.03947 0.29714-0.0099 0-0.0099 0.0102-0.0099 0.0205-0.0099-0.0102-0.01973-0.0102-0.0296-0.0102-0.01973-0.0102-0.01973-0.0102-0.01973-0.0205-0.01973-0.0615-0.01973-0.1127-0.0296-0.17418l-0.0099-0.10246c-0.0099-0.0307-0.0099-0.0512-0.0099-0.082 0-0.0205-0.0099-0.041-0.0099-0.0717 0-0.0205 0-0.041-0.0099-0.0615v-0.0102 0.0307l-0.0099 0.0922c0 0.0307-0.0099 0.0717-0.0099 0.0922-0.0099 0.0512-0.0099 0.10246-0.01973 0.15369 0 0.0307 0 0.0615-0.0099 0.0922l-0.0099 0.0307-0.03947-0.0102c-0.0099 0-0.0099 0-0.0099-0.0102v-0.0205c-0.01973-0.0512-0.01973-0.10246-0.0296-0.15369v-0.041c-0.0098-0.0307-0.0098-0.0512-0.0098-0.0717 0-0.0615-0.0099-0.15369-0.0099-0.21517l-0.0099-0.0717v-0.0205-0.0102l-0.0099 0.0307v0.0205 0.041 0.0102l-0.0099 0.1332v0.0205c-0.0099 0.0307-0.0099 0.0922-0.0099 0.12296v0.0205c-0.0099 0.0615-0.01973 0.14345-0.03946 0.19468v0.0205zm0.1184 0.77871c0.0592-0.31763 0.18747-0.57379 0.52293-0.59428-0.0592 0.43034-0.28613 0.52256-0.52293 0.59428zm-0.10853 0c-0.0592-0.31763-0.18747-0.57379-0.52293-0.59428 0.06907 0.43034 0.28613 0.52256 0.52293 0.59428zm0.13813 0.082c0.37493 0.041 0.77947-0.14345 0.7992-0.42009h-0.296c-0.04933 0.16393-0.18747 0.30738-0.5032 0.42009zm-0.16773 0c-0.37493 0.041-0.7696-0.14345-0.7992-0.42009h0.296c0.04933 0.16393 0.18747 0.30738 0.5032 0.42009z" fill="#fff" fill-rule="evenodd"/>
  <path d="m85.433 121.3h-0.04933l-0.0099-0.0205c-0.01973-0.082-0.0296-0.24591-0.03947-0.33812v-0.041-0.0205c-0.0099-0.0205 0-0.041-0.0099-0.0615v0.0102c-0.0099 0.0307-0.0099 0.0615-0.0099 0.10246-0.0099 0.041-0.0099 0.0922-0.01973 0.14345 0 0.0615-0.0099 0.12295-0.01973 0.17418 0 0.0102-0.01973 0.0717-0.01973 0.082h-0.01973c0 0.0102-0.01973 0.0102-0.0296 0.0102l-0.0099-0.0307c-0.01973-0.0922-0.0296-0.18443-0.03947-0.27665 0-0.0102 0-0.041-0.0099-0.0512 0 0.0205-0.0099 0.041-0.0099 0.0615-0.0099 0.0922-0.01973 0.27665-0.0296 0.38935 0.03947 0.0205 0.0592 0.0307 0.09867 0.0512 0.0099 0.0102 0.01973 0.0102 0.0296 0.0205 0.0099 0.0102 0.01973 0.0205 0.0296 0.0205 0.0592 0.0717 0.09867 0.10246 0.13813 0.19468 0.04933 0.10246 0.06907 0.20492 0.07893 0.32787 0.0099 0.0102 0.0099 0.0205 0.0099 0.0307v0.0615c0.0099 0 0.0099-0.0102 0.0099-0.0102 0.01973-0.16394 0.01973-0.27664 0.10853-0.43034 0.04933-0.0922 0.0888-0.14344 0.16773-0.20492 0.03947-0.0307 0.06907-0.041 0.10853-0.0615 0-0.10246-0.01973-0.20492-0.01973-0.30738l-0.0099-0.12296c-0.0099-0.0102-0.0099-0.0102-0.0099-0.0205v0 0.0307s-0.0099 0.0102-0.0099 0.0205c-0.0099 0.0922-0.01973 0.20493-0.03947 0.29714-0.0099 0-0.0099 0.0102-0.0099 0.0102-0.0099 0-0.01973 0-0.0296-0.0102-0.01973 0-0.01973 0-0.01973-0.0102-0.01973-0.0615-0.01973-0.11271-0.0296-0.17419l-0.0099-0.11271c-0.0099-0.0205-0.0099-0.041-0.0099-0.0717 0-0.0205-0.0099-0.041-0.0099-0.0717 0-0.0205 0-0.041-0.0099-0.0615v0-0.0102 0.0307l-0.0099 0.0922c0 0.0307-0.0099 0.0717-0.0099 0.0922-0.0099 0.0512-0.0099 0.10247-0.01973 0.1537 0 0.0307 0 0.0615-0.0099 0.0922l-0.0099 0.0205h-0.03947c-0.0099 0-0.0099 0-0.0099-0.0102v-0.0205c-0.01973-0.0512-0.01973-0.10246-0.0296-0.16394v-0.041c-0.0098-0.0205-0.0098-0.041-0.0098-0.0615 0-0.0615-0.0099-0.15369-0.0099-0.21516l-0.0099-0.0717v-0.0205-0.0102-0.0102l-0.0099 0.041v0.0205 0.041 0.0102l-0.0099 0.1332v0.0205c-0.0099 0.0307-0.0099 0.0922-0.0099 0.12295v0.0102c-0.0099 0.0615-0.01973 0.15369-0.03946 0.20492v0.0205zm0.1184 0.77871c0.0592-0.31763 0.18747-0.57378 0.52293-0.59428-0.0592 0.43034-0.28613 0.52256-0.52293 0.59428zm-0.10853 0c-0.0592-0.31763-0.18747-0.57378-0.52293-0.59428 0.06907 0.43034 0.28613 0.52256 0.52293 0.59428zm0.13813 0.082c0.37493 0.041 0.77947-0.14345 0.7992-0.42009h-0.296c-0.04933 0.16394-0.18747 0.30738-0.5032 0.42009zm-0.16773 0c-0.37493 0.041-0.7696-0.14345-0.7992-0.42009h0.296c0.04933 0.16394 0.18747 0.30738 0.5032 0.42009z" fill="none" stroke="#000" stroke-linecap="round" stroke-linejoin="round" stroke-width=".078933px"/>
  <path d="m85.433 121.3h-0.04933l-0.0099-0.0205c-0.01973-0.082-0.0296-0.24591-0.03947-0.33812v-0.041-0.0205c-0.0099-0.0205 0-0.041-0.0099-0.0615v0.0102c-0.0099 0.0307-0.0099 0.0615-0.0099 0.10246-0.0099 0.041-0.0099 0.0922-0.01973 0.14345 0 0.0615-0.0099 0.12295-0.01973 0.17418 0 0.0102-0.01973 0.0717-0.01973 0.082h-0.01973c0 0.0102-0.01973 0.0102-0.0296 0.0102l-0.0099-0.0307c-0.01973-0.0922-0.0296-0.18443-0.03947-0.27665 0-0.0102 0-0.041-0.0099-0.0512 0 0.0205-0.0099 0.041-0.0099 0.0615-0.0099 0.0922-0.01973 0.27665-0.0296 0.38935 0.03947 0.0205 0.0592 0.0307 0.09867 0.0512 0.0099 0.0102 0.01973 0.0102 0.0296 0.0205 0.0099 0.0102 0.01973 0.0205 0.0296 0.0205 0.0592 0.0717 0.09867 0.10246 0.13813 0.19468 0.04933 0.10246 0.06907 0.20492 0.07893 0.32787 0.0099 0.0102 0.0099 0.0205 0.0099 0.0307v0.0615c0.0099 0 0.0099-0.0102 0.0099-0.0102 0.01973-0.16394 0.01973-0.27664 0.10853-0.43034 0.04933-0.0922 0.0888-0.14344 0.16773-0.20492 0.03947-0.0307 0.06907-0.041 0.10853-0.0615 0-0.10246-0.01973-0.20492-0.01973-0.30738l-0.0099-0.12296c-0.0099-0.0102-0.0099-0.0102-0.0099-0.0205v0.0307s-0.0099 0.0102-0.0099 0.0205c-0.0099 0.0922-0.01973 0.20493-0.03947 0.29714-0.0099 0-0.0099 0.0102-0.0099 0.0102-0.0099 0-0.01973 0-0.0296-0.0102-0.01973 0-0.01973 0-0.01973-0.0102-0.01973-0.0615-0.01973-0.11271-0.0296-0.17419l-0.0099-0.11271c-0.0099-0.0205-0.0099-0.041-0.0099-0.0717 0-0.0205-0.0099-0.041-0.0099-0.0717 0-0.0205 0-0.041-0.0099-0.0615v-0.0102 0.0307l-0.0099 0.0922c0 0.0307-0.0099 0.0717-0.0099 0.0922-0.0099 0.0512-0.0099 0.10247-0.01973 0.1537 0 0.0307 0 0.0615-0.0099 0.0922l-0.0099 0.0205h-0.03947c-0.0099 0-0.0099 0-0.0099-0.0102v-0.0205c-0.01973-0.0512-0.01973-0.10246-0.0296-0.16394v-0.041c-0.0098-0.0205-0.0098-0.041-0.0098-0.0615 0-0.0615-0.0099-0.15369-0.0099-0.21516l-0.0099-0.0717v-0.0205-0.0102-0.0102l-0.0099 0.041v0.0205 0.041 0.0102l-0.0099 0.1332v0.0205c-0.0099 0.0307-0.0099 0.0922-0.0099 0.12295v0.0102c-0.0099 0.0615-0.01973 0.15369-0.03946 0.20492v0.0205zm0.1184 0.77871c0.0592-0.31763 0.18747-0.57378 0.52293-0.59428-0.0592 0.43034-0.28613 0.52256-0.52293 0.59428zm-0.10853 0c-0.0592-0.31763-0.18747-0.57378-0.52293-0.59428 0.06907 0.43034 0.28613 0.52256 0.52293 0.59428zm0.13813 0.082c0.37493 0.041 0.77947-0.14345 0.7992-0.42009h-0.296c-0.04933 0.16394-0.18747 0.30738-0.5032 0.42009zm-0.16773 0c-0.37493 0.041-0.7696-0.14345-0.7992-0.42009h0.296c0.04933 0.16394 0.18747 0.30738 0.5032 0.42009z" fill="#bbdaff" fill-rule="evenodd"/>
  <path d="m85.433 124.25h-0.04933l-0.0099-0.0205c-0.01973-0.082-0.0296-0.2459-0.03947-0.33812v-0.041-0.0205c-0.0099-0.0205 0-0.041-0.0099-0.0615v0.0102c-0.0099 0.0307-0.0099 0.0615-0.0099 0.10246-0.0099 0.041-0.0099 0.0922-0.01973 0.14345 0 0.0615-0.0099 0.12295-0.01973 0.17418 0 0.0102-0.01973 0.0717-0.01973 0.082h-0.01973c0 0.0102-0.01973 0.0102-0.0296 0.0102l-0.0099-0.041c-0.01973-0.082-0.0296-0.17418-0.03947-0.2664 0-0.0102 0-0.041-0.0099-0.0512 0 0.0205-0.0099 0.041-0.0099 0.0512-0.0099 0.10246-0.01973 0.28689-0.0296 0.3996 0.03947 0.0205 0.0592 0.0307 0.09867 0.0512 0.0099 0.0102 0.01973 0.0102 0.0296 0.0205 0.0099 0.0102 0.01973 0.0102 0.0296 0.0205 0.0592 0.0615 0.09867 0.10246 0.13813 0.18443 0.04933 0.11271 0.06907 0.21517 0.07893 0.32788 0.0099 0.0103 0.0099 0.0307 0.0099 0.041v0.0615c0.0099 0 0.0099-0.0102 0.0099-0.0102 0.01973-0.16394 0.01973-0.27665 0.10853-0.44058 0.04933-0.082 0.0888-0.14345 0.16773-0.19468 0.03947-0.0307 0.06907-0.041 0.10853-0.0615 0-0.10246-0.01973-0.20492-0.01973-0.30739l-0.0099-0.12295c-0.0099-0.0102-0.0099-0.0102-0.0099-0.0205v0 0.0205c0 0.0102-0.0099 0.0205-0.0099 0.0307-0.0099 0.082-0.01973 0.20492-0.03947 0.28689-0.0099 0.0102-0.0099 0.0205-0.0099 0.0205-0.0099 0-0.01973 0-0.0296-0.0102-0.01973 0-0.01973 0-0.01973-0.0205-0.01973-0.0512-0.01973-0.11271-0.0296-0.16394l-0.0099-0.1127c-0.0099-0.0205-0.0099-0.041-0.0099-0.0717 0-0.0205-0.0099-0.0512-0.0099-0.0717s0-0.041-0.0099-0.0615v-0.0102 0 0.0307l-0.0099 0.0922c0 0.0307-0.0099 0.0717-0.0099 0.0922-0.0099 0.0512-0.0099 0.10246-0.01973 0.15369 0 0.0307 0 0.0615-0.0099 0.0922l-0.0099 0.0205h-0.03947c-0.0099 0-0.0099 0-0.0099-0.0102v-0.0205c-0.01973-0.0512-0.01973-0.10246-0.0296-0.16394v-0.041c-0.0099-0.0205-0.0099-0.041-0.0099-0.0615 0-0.0717-0.0099-0.15369-0.0099-0.21517l-0.0099-0.0717v-0.0205-0.0102-0.0102l-0.0099 0.041v0.0205 0.041 0.0102l-0.0099 0.1332v0.0205c-0.0099 0.0307-0.0099 0.0922-0.0099 0.11271v0.0205c-0.0099 0.0615-0.01973 0.14344-0.03947 0.20492v0.0205zm0.1184 0.7787c0.0592-0.31763 0.18747-0.57378 0.52293-0.60452-0.0592 0.43034-0.28613 0.5328-0.52293 0.60452zm-0.10853 0c-0.0592-0.31763-0.18747-0.57378-0.52293-0.60452 0.06907 0.43034 0.28613 0.5328 0.52293 0.60452zm0.13813 0.082c0.37493 0.041 0.77947-0.14344 0.7992-0.42009h-0.296c-0.04933 0.16394-0.18747 0.30738-0.5032 0.42009zm-0.16773 0c-0.37493 0.041-0.7696-0.14344-0.7992-0.42009h0.296c0.04933 0.16394 0.18747 0.30738 0.5032 0.42009z" fill="none" stroke="#000" stroke-linecap="round" stroke-linejoin="round" stroke-width=".078933px"/>
  <path d="m85.433 124.25h-0.04933l-0.0099-0.0205c-0.01973-0.082-0.0296-0.2459-0.03947-0.33812v-0.041-0.0205c-0.0099-0.0205 0-0.041-0.0099-0.0615v0.0102c-0.0099 0.0307-0.0099 0.0615-0.0099 0.10246-0.0099 0.041-0.0099 0.0922-0.01973 0.14345 0 0.0615-0.0099 0.12295-0.01973 0.17418 0 0.0102-0.01973 0.0717-0.01973 0.082h-0.01973c0 0.0102-0.01973 0.0102-0.0296 0.0102l-0.0099-0.041c-0.01973-0.082-0.0296-0.17418-0.03947-0.2664 0-0.0102 0-0.041-0.0099-0.0512 0 0.0205-0.0099 0.041-0.0099 0.0512-0.0099 0.10246-0.01973 0.28689-0.0296 0.3996 0.03947 0.0205 0.0592 0.0307 0.09867 0.0512 0.0099 0.0102 0.01973 0.0102 0.0296 0.0205 0.0099 0.0102 0.01973 0.0102 0.0296 0.0205 0.0592 0.0615 0.09867 0.10246 0.13813 0.18443 0.04933 0.11271 0.06907 0.21517 0.07893 0.32788 0.0099 0.0103 0.0099 0.0307 0.0099 0.041v0.0615c0.0099 0 0.0099-0.0102 0.0099-0.0102 0.01973-0.16394 0.01973-0.27665 0.10853-0.44058 0.04933-0.082 0.0888-0.14345 0.16773-0.19468 0.03947-0.0307 0.06907-0.041 0.10853-0.0615 0-0.10246-0.01973-0.20492-0.01973-0.30739l-0.0099-0.12295c-0.0099-0.0102-0.0099-0.0102-0.0099-0.0205v0.0205c0 0.0102-0.0099 0.0205-0.0099 0.0307-0.0099 0.082-0.01973 0.20492-0.03947 0.28689-0.0099 0.0102-0.0099 0.0205-0.0099 0.0205-0.0099 0-0.01973 0-0.0296-0.0102-0.01973 0-0.01973 0-0.01973-0.0205-0.01973-0.0512-0.01973-0.11271-0.0296-0.16394l-0.0099-0.1127c-0.0099-0.0205-0.0099-0.041-0.0099-0.0717 0-0.0205-0.0099-0.0512-0.0099-0.0717s0-0.041-0.0099-0.0615v-0.0102 0.0307l-0.0099 0.0922c0 0.0307-0.0099 0.0717-0.0099 0.0922-0.0099 0.0512-0.0099 0.10246-0.01973 0.15369 0 0.0307 0 0.0615-0.0099 0.0922l-0.0099 0.0205h-0.03947c-0.0099 0-0.0099 0-0.0099-0.0102v-0.0205c-0.01973-0.0512-0.01973-0.10246-0.0296-0.16394v-0.041c-0.0099-0.0205-0.0099-0.041-0.0099-0.0615 0-0.0717-0.0099-0.15369-0.0099-0.21517l-0.0099-0.0717v-0.0205-0.0102-0.0102l-0.0099 0.041v0.0205 0.041 0.0102l-0.0099 0.1332v0.0205c-0.0099 0.0307-0.0099 0.0922-0.0099 0.11271v0.0205c-0.0099 0.0615-0.01973 0.14344-0.03947 0.20492v0.0205zm0.1184 0.7787c0.0592-0.31763 0.18747-0.57378 0.52293-0.60452-0.0592 0.43034-0.28613 0.5328-0.52293 0.60452zm-0.10853 0c-0.0592-0.31763-0.18747-0.57378-0.52293-0.60452 0.06907 0.43034 0.28613 0.5328 0.52293 0.60452zm0.13813 0.082c0.37493 0.041 0.77947-0.14344 0.7992-0.42009h-0.296c-0.04933 0.16394-0.18747 0.30738-0.5032 0.42009zm-0.16773 0c-0.37493 0.041-0.7696-0.14344-0.7992-0.42009h0.296c0.04933 0.16394 0.18747 0.30738 0.5032 0.42009z" fill="#feda20" fill-rule="evenodd"/>
  <path d="m85.433 127.2h-0.04933l-0.0099-0.0205c-0.01973-0.082-0.0296-0.24591-0.03947-0.33813v-0.041-0.0205c-0.0099-0.0205 0-0.041-0.0099-0.0615v0.0102c-0.0099 0.0307-0.0099 0.0615-0.0099 0.0922-0.0099 0.0512-0.0099 0.10246-0.01973 0.1537 0 0.0512-0.0099 0.1127-0.01973 0.17418 0 0.0102-0.01973 0.0717-0.01973 0.082h-0.01973s-0.01973 0.0102-0.0296 0.0102l-0.0099-0.041c-0.01973-0.082-0.0296-0.18443-0.03947-0.27665 0 0 0-0.0307-0.0099-0.041 0 0.0205-0.0099 0.041-0.0099 0.0512-0.0099 0.10246-0.01973 0.28689-0.0296 0.3996 0.03947 0.0102 0.0592 0.0307 0.09867 0.0512 0.0099 0 0.01973 0.0102 0.0296 0.0205 0.0099 0.0102 0.01973 0.0102 0.0296 0.0205 0.0592 0.0615 0.09867 0.10246 0.13813 0.18443 0.04933 0.10246 0.06907 0.21517 0.07893 0.32788 0.0099 0.0102 0.0099 0.0307 0.0099 0.0307v0.0717c0.0099 0 0.0099-0.0102 0.0099-0.0205 0.01973-0.15369 0.01973-0.2664 0.10853-0.43034 0.04933-0.082 0.0888-0.14344 0.16773-0.19468 0.03947-0.0307 0.06907-0.0512 0.10853-0.0615 0-0.10246-0.01973-0.21516-0.01973-0.30738l-0.0099-0.1332c-0.0099 0-0.0099 0-0.0099-0.0102v0 0.0205c0 0.0102-0.0099 0.0205-0.0099 0.0307-0.0099 0.082-0.01973 0.20492-0.03947 0.28689-0.0099 0.0102-0.0099 0.0205-0.0099 0.0205-0.0099 0-0.01973-0.0102-0.0296-0.0102-0.01973 0-0.01973 0-0.01973-0.0205-0.01973-0.0512-0.01973-0.11271-0.0296-0.16394l-0.0099-0.1127c-0.0099-0.0205-0.0099-0.041-0.0099-0.0717 0-0.0205-0.0099-0.0512-0.0099-0.0717s0-0.041-0.0099-0.0615v-0.0102 0 0.0307l-0.0099 0.0922c0 0.0205-0.0099 0.0717-0.0099 0.0922-0.0099 0.0512-0.0099 0.10246-0.01973 0.15369 0 0.0307 0 0.0615-0.0099 0.0922l-0.0099 0.0205h-0.03947c-0.0099 0-0.0099 0-0.0099-0.0102v-0.0205c-0.01973-0.0512-0.01973-0.11271-0.0296-0.16394v-0.041c-0.0099-0.0205-0.0099-0.041-0.0099-0.0615 0-0.0717-0.0099-0.15369-0.0099-0.22542l-0.0099-0.0615v-0.0205-0.0102-0.0102l-0.0099 0.041v0.0205 0.041 0.0102l-0.0099 0.1332v0.0205c-0.0099 0.0307-0.0099 0.082-0.0099 0.11271v0.0205c-0.0099 0.0615-0.01973 0.14345-0.03947 0.20492v0.0205zm0.1184 0.77871c0.0592-0.32788 0.18747-0.57379 0.52293-0.60453-0.0592 0.43034-0.28613 0.5328-0.52293 0.60453zm-0.10853 0c-0.0592-0.32788-0.18747-0.57379-0.52293-0.60453 0.06907 0.43034 0.28613 0.5328 0.52293 0.60453zm0.13813 0.0717c0.37493 0.0512 0.77947-0.1332 0.7992-0.40985h-0.296c-0.04933 0.16394-0.18747 0.30739-0.5032 0.40985zm-0.16773 0c-0.37493 0.0512-0.7696-0.1332-0.7992-0.40985h0.296c0.04933 0.16394 0.18747 0.30739 0.5032 0.40985z" fill="none" stroke="#000" stroke-linecap="round" stroke-linejoin="round" stroke-width=".078933px"/>
  <path d="m85.433 127.2h-0.04933l-0.0099-0.0205c-0.01973-0.082-0.0296-0.24591-0.03947-0.33813v-0.041-0.0205c-0.0099-0.0205 0-0.041-0.0099-0.0615v0.0102c-0.0099 0.0307-0.0099 0.0615-0.0099 0.0922-0.0099 0.0512-0.0099 0.10246-0.01973 0.1537 0 0.0512-0.0099 0.1127-0.01973 0.17418 0 0.0102-0.01973 0.0717-0.01973 0.082h-0.01973s-0.01973 0.0102-0.0296 0.0102l-0.0099-0.041c-0.01973-0.082-0.0296-0.18443-0.03947-0.27665 0 0 0-0.0307-0.0099-0.041 0 0.0205-0.0099 0.041-0.0099 0.0512-0.0099 0.10246-0.01973 0.28689-0.0296 0.3996 0.03947 0.0102 0.0592 0.0307 0.09867 0.0512 0.0099 0 0.01973 0.0102 0.0296 0.0205 0.0099 0.0102 0.01973 0.0102 0.0296 0.0205 0.0592 0.0615 0.09867 0.10246 0.13813 0.18443 0.04933 0.10246 0.06907 0.21517 0.07893 0.32788 0.0099 0.0102 0.0099 0.0307 0.0099 0.0307v0.0717c0.0099 0 0.0099-0.0102 0.0099-0.0205 0.01973-0.15369 0.01973-0.2664 0.10853-0.43034 0.04933-0.082 0.0888-0.14344 0.16773-0.19468 0.03947-0.0307 0.06907-0.0512 0.10853-0.0615 0-0.10246-0.01973-0.21516-0.01973-0.30738l-0.0099-0.1332c-0.0099 0-0.0099 0-0.0099-0.0102v0.0205c0 0.0102-0.0099 0.0205-0.0099 0.0307-0.0099 0.082-0.01973 0.20492-0.03947 0.28689-0.0099 0.0102-0.0099 0.0205-0.0099 0.0205-0.0099 0-0.01973-0.0102-0.0296-0.0102-0.01973 0-0.01973 0-0.01973-0.0205-0.01973-0.0512-0.01973-0.11271-0.0296-0.16394l-0.0099-0.1127c-0.0099-0.0205-0.0099-0.041-0.0099-0.0717 0-0.0205-0.0099-0.0512-0.0099-0.0717s0-0.041-0.0099-0.0615v-0.0102 0.0307l-0.0099 0.0922c0 0.0205-0.0099 0.0717-0.0099 0.0922-0.0099 0.0512-0.0099 0.10246-0.01973 0.15369 0 0.0307 0 0.0615-0.0099 0.0922l-0.0099 0.0205h-0.03947c-0.0099 0-0.0099 0-0.0099-0.0102v-0.0205c-0.01973-0.0512-0.01973-0.11271-0.0296-0.16394v-0.041c-0.0099-0.0205-0.0099-0.041-0.0099-0.0615 0-0.0717-0.0099-0.15369-0.0099-0.22542l-0.0099-0.0615v-0.0205-0.0102-0.0102l-0.0099 0.041v0.0205 0.041 0.0102l-0.0099 0.1332v0.0205c-0.0099 0.0307-0.0099 0.082-0.0099 0.11271v0.0205c-0.0099 0.0615-0.01973 0.14345-0.03947 0.20492v0.0205zm0.1184 0.77871c0.0592-0.32788 0.18747-0.57379 0.52293-0.60453-0.0592 0.43034-0.28613 0.5328-0.52293 0.60453zm-0.10853 0c-0.0592-0.32788-0.18747-0.57379-0.52293-0.60453 0.06907 0.43034 0.28613 0.5328 0.52293 0.60453zm0.13813 0.0717c0.37493 0.0512 0.77947-0.1332 0.7992-0.40985h-0.296c-0.04933 0.16394-0.18747 0.30739-0.5032 0.40985zm-0.16773 0c-0.37493 0.0512-0.7696-0.1332-0.7992-0.40985h0.296c0.04933 0.16394 0.18747 0.30739 0.5032 0.40985z" fill="#ff6400" fill-rule="evenodd"/>
  <path d="m91.935 113.33c0.0099 0.0102 0.1184 0.12295 0.12827 0.1332-0.0592 0.041-0.18747 0.2459-0.2072 0.30738 0.01973 0.0102 0.0888 0.0615 0.10853 0.0717v0.0102c-0.04933 0.10246-0.1184 0.20492-0.1184 0.32788l0.09867 0.0615c0 0.0205-0.01973 0.0717-0.03947 0.11271-0.0099 0.0307-0.01973 0.0717-0.0296 0.11271-0.0099 0.0512-0.03947 0.22541-0.03947 0.2664 0.03947 0.0205 0.06907 0.0307 0.09867 0.0615 0.06907 0.041 0.16773 0.1127 0.22693 0.17418 0 0 0.0099 0.0103 0.0099 0.0205 0.0592 0.0512 0.10853 0.14345 0.148 0.21517 0.0296 0.0717 0.0592 0.16394 0.0592 0.25615 0.0099 0.082-0.0099 0.0615 0.0296 0.12296 0.03947 0.0512 0.06907 0.0922 0.10853 0.1332 0.0099 0.0205 0.0296 0.0307 0.03947 0.041 0.0099 0.0103 0.0099 0.0103 0.01973 0.0205 0.06907 0.0615 0.1776 0.1332 0.2664 0.16393 0.0592 0.0307 0.1776 0.0717 0.24667 0.0717 0.0592 0 0.18747-0.041 0.24667-0.0615 0.10853-0.0512 0.2368-0.1332 0.3256-0.22542 0.03947-0.041 0.06907-0.0922 0.10853-0.1332 0.04933-0.0717 0.01973-0.041 0.0296-0.1332 0.0099-0.1332 0.04933-0.2459 0.1184-0.35861 0.0296-0.0615 0.0592-0.0922 0.09867-0.1332 0.01973-0.0205 0.0592-0.0615 0.0888-0.082 0.07893-0.0615 0.0888-0.0717 0.1776-0.12295 0.01973-0.0102 0.03947-0.0205 0.0592-0.0307 0-0.0307-0.0296-0.22542-0.03947-0.2664-0.01973-0.0717-0.03947-0.16394-0.06907-0.22542l0.09867-0.0615c0-0.0717-0.04933-0.19468-0.07893-0.25616l-0.03947-0.0717c0-0.0102 0.09867-0.082 0.10853-0.082-0.0099-0.0512-0.13813-0.2664-0.2072-0.30739 0.01973-0.0205 0.1184-0.12295 0.12827-0.14344-0.0099 0-0.01973-0.0205-0.01973-0.0307-0.09867-0.16394-0.28613-0.33812-0.43413-0.43034-0.1776-0.11271-0.444-0.20492-0.70053-0.20492-0.2664 0-0.52293 0.0922-0.70053 0.20492-0.12827 0.082-0.38481 0.30739-0.45387 0.47133z" fill="#231f20" fill-rule="evenodd"/>
  <g fill="#fff" fill-rule="evenodd">
   <path d="m92.162 113.33 0.18747 0.21516c0.09867 0.12296 0.148 0.22542 0.22693 0.36887 0 0.0102 0.0099 0.0307 0.01973 0.041 0 0 0.0099-0.0205 0.01973-0.0307 0-0.0102 0.0099-0.0102 0.01973-0.0205 0.1776-0.24591 0.48347-0.31763 0.74987-0.15369 0.06907 0.041 0.12827 0.11271 0.1776 0.17418 0.0099 0.0102 0.0099 0.0205 0.01973 0.0307v-0.0102h0.0099v-0.0102c0.03947-0.082 0.07893-0.16394 0.12827-0.23566 0.06907-0.10246 0.09867-0.14345 0.16773-0.22542l0.0592-0.0717c0.01973-0.0102 0.01973-0.0205 0.03947-0.0307 0.0099-0.0102 0.01973-0.0205 0.0296-0.041-0.0099-0.0102-0.0296-0.041-0.03947-0.0512l-0.0296-0.0307c-0.03947-0.0512-0.07893-0.082-0.1184-0.12296-0.0099-0.0102-0.01973-0.0205-0.0296-0.0205-0.0099-0.0205-0.0296-0.0307-0.04933-0.041-0.03947-0.0307-0.06907-0.0512-0.10853-0.0717-0.13813-0.082-0.3552-0.15369-0.55253-0.15369-0.24667 0-0.5328 0.11271-0.7104 0.25615l-0.1184 0.11271c-0.01977 0.0307-0.07897 0.0922-0.0987 0.12296z"/>
   <path d="m93.089 115.35c0.0099-0.0102 0.0099-0.0307 0.01973-0.0512 0.0099-0.0205 0.0099-0.0307 0.01973-0.0512 0.0592-0.1537 0.148-0.36887 0.24667-0.49182 0.01973-0.0205 0.0099-0.0307 0.01973-0.0615 0-0.0717 0.0099-0.1332 0.01973-0.20492 0.01973-0.0922 0.04933-0.20492 0.07893-0.29714 0-0.0102 0.01973-0.041 0.0099-0.0512-0.0099-0.0307-0.0296-0.0717-0.04933-0.10246-0.18747-0.29714-0.55253-0.28689-0.73013 0.0102-0.01973 0.0307-0.03947 0.0615-0.04933 0.0922-0.0099 0.0205 0 0.041 0.0099 0.0615s0.0099 0.0307 0.01973 0.0512c0.01973 0.082 0.03947 0.16394 0.0592 0.24591 0.0099 0.0615 0.01973 0.1332 0.01973 0.19467 0.0099 0.041 0 0.041 0.01973 0.0615l0.0592 0.082c0.0592 0.10246 0.10853 0.19468 0.148 0.29714l0.0592 0.16394c0.0099 0.0205 0.0099 0.041 0.01973 0.0512z"/>
   <path d="m93.168 115.81c0.0592-0.0102 0.148-0.0512 0.19733-0.0717 0.0296-0.0205 0.0592-0.041 0.07893-0.0512s0.0296-0.0205 0.03947-0.0307c0.01973-0.0102 0.0296-0.0205 0.03947-0.0307 0.03947-0.041 0.06907-0.0615 0.09867-0.10246 0.01973-0.0307 0.0099-0.0307 0.0099-0.0615 0.0099-0.18443 0.0888-0.35861 0.19733-0.49181 0.01973-0.0205 0.03947-0.0512 0.0592-0.0717 0.01973-0.0307 0.04933-0.0615 0.07893-0.0922 0.0099 0 0.0099 0 0.01973-0.0102 0.0296-0.0307 0.16773-0.1332 0.19733-0.1537-0.0099-0.0615-0.07897-0.30738-0.10857-0.34837-0.0296 0.0102-0.15787 0.10247-0.1776 0.12296-0.0296 0.0205-0.04933 0.041-0.07893 0.0615-0.03947 0.041-0.13813 0.12296-0.16773 0.16394-0.0099 0.0102-0.01973 0.0205-0.01973 0.0205-0.03947 0.041-0.07893 0.082-0.10853 0.1332-0.01973 0.0307-0.03947 0.0512-0.0592 0.082-0.15787 0.23567-0.296 0.56354-0.296 0.9324z"/>
   <path d="m92.004 114.64c0.0888 0.0717 0.09867 0.0717 0.18747 0.1537 0.01973 0.0102 0.0296 0.0307 0.04933 0.041 0 0.0102 0.0099 0.0205 0.01973 0.0205 0.13813 0.14345 0.28613 0.38936 0.28613 0.62502 0 0.0307 0 0.0205 0.0099 0.041l0.03946 0.041c0.03947 0.0512 0.0888 0.0922 0.13813 0.12295 0.0592 0.041 0.19733 0.11271 0.27627 0.12295 0-0.19467-0.0296-0.35861-0.0888-0.52255-0.04933-0.15369-0.12827-0.29714-0.2072-0.40985-0.03947-0.0512-0.07893-0.12295-0.12827-0.16393l-0.06907-0.082-0.1184-0.11271c0-0.0102-0.0099-0.0102-0.01973-0.0205 0 0-0.0099-0.0102-0.01973-0.0205-0.03947-0.0307-0.21707-0.17419-0.25653-0.18444 0 0.0102-0.0099 0.0205-0.01973 0.0307-0.0099 0.041-0.0296 0.0922-0.03947 0.1332-0.0099 0.041-0.03947 0.14345-0.03947 0.18443z"/>
   <path d="m93.533 114.55 0.0888-0.082c0-0.0102 0.0099-0.0102 0.0099-0.0205 0.01973-0.0102 0.0296-0.0205 0.03947-0.0307 0.0888-0.0717 0.2072-0.17419 0.30587-0.23566 0.0296-0.0102 0.0592-0.0307 0.0888-0.0512 0.0099-0.0102 0.06907-0.041 0.07893-0.0512-0.0099-0.041-0.04933-0.11271-0.07893-0.14345-0.0099 0.0102-0.25653 0.21517-0.2664 0.22541 0.0099-0.0205 0.0888-0.1332 0.09867-0.15369l0.19733-0.2664c0.0099-0.0102 0.0099-0.0102 0-0.0205-0.0099-0.0307-0.0296-0.0512-0.04933-0.0717-0.0099-0.0205-0.04933-0.0512-0.0592-0.0717-0.0099 0.0102-0.0099 0.0205-0.01973 0.0307-0.0888 0.10246-0.19733 0.28689-0.25653 0.40985-0.03947 0.082-0.06907 0.16394-0.09867 0.25615-0.01973 0.041-0.0296 0.082-0.03947 0.1332-0.0099 0.0307-0.03947 0.12296-0.03947 0.14345z"/>
   <path d="m92.379 114.16-0.06907-0.0615c-0.01973-0.0102-0.18747-0.1537-0.19733-0.16394-0.0099 0.0102-0.01973 0.0205-0.0296 0.0307-0.01973 0.0307-0.03947 0.082-0.04933 0.1127 0.0296 0.0205 0.0592 0.041 0.07893 0.0512 0.12827 0.082 0.2072 0.1332 0.31573 0.22541l0.07893 0.0615c0.01973 0.0205 0.07893 0.0717 0.09867 0.10246l0.03947 0.0307c-0.0099-0.041-0.01973-0.10246-0.03947-0.14345-0.01973-0.10246-0.0888-0.29714-0.13813-0.38935-0.03947-0.082-0.06907-0.14345-0.12827-0.23566-0.01973-0.0307-0.03947-0.0615-0.06907-0.10247l-0.0592-0.0717c0-0.0102-0.0099-0.0205-0.01973-0.0205-0.0099 0-0.04933 0.041-0.0592 0.0615-0.01973 0.0205-0.03947 0.041-0.04933 0.0717 0 0.0102-0.0099 0.0102 0 0.0205 0.07893 0.10246 0.12827 0.17419 0.19733 0.2664l0.07893 0.11271c0 0.0102 0.01973 0.0307 0.01973 0.041z"/>
  </g>
 </g>
</svg>
