<?xml version="1.0" encoding="UTF-8"?>
<svg width="34.235mm" height="3.0417mm" version="1.1" viewBox="0 0 34.235 3.0417" xmlns="http://www.w3.org/2000/svg">
 <style/>
 <g transform="translate(-66.848 -178.6)">
  <path d="m67.414 178.74h22.545c0.27627 0 0.49333 0.22542 0.49333 0.50206v1.7623c0 0.28689-0.21707 0.51231-0.49333 0.51231h-22.545c-0.2664 0-0.48347-0.22542-0.48347-0.51231v-1.7623c0-0.27664 0.21707-0.50206 0.48347-0.50206z" fill="#202021" stroke="#282b2e" stroke-width=".165" style="paint-order:stroke markers fill"/>
  <path d="m92.417 178.74h8.0512c0.26641 0 0.48347 0.22542 0.48347 0.50206v1.7623c0 0.28689-0.21706 0.51231-0.48347 0.51231h-8.0512c-0.2664 0-0.48347-0.22542-0.48347-0.51231v-1.7623c0-0.27664 0.21707-0.50206 0.48347-0.50206z" fill="#aabedf" fill-rule="evenodd" stroke="#282b2e" stroke-linecap="round" stroke-width=".265" style="paint-order:stroke markers fill"/>
  <g>
   <path d="m68.066 180.05c0 0.0102 0 0.0102-0.0099 0.0102 0 0.0102 0 0.0102-0.0099 0.0102l-0.0099-0.0102c-0.0099 0-0.01973-0.0102-0.0296-0.0102-0.0099-0.0103-0.01973-0.0103-0.0296-0.0205h-0.04933-0.04933c-0.0099 0.0102-0.01973 0.0102-0.0296 0.0205-0.0099 0.0102-0.01973 0.0205-0.0296 0.0307v0.041c0 0.0205 0 0.0307 0.0099 0.041 0.01973 0.0102 0.0296 0.0205 0.04933 0.0307s0.03947 0.0102 0.0592 0.0205c0.01973 0.0102 0.03947 0.0205 0.0592 0.0307 0.0099 0.0102 0.0296 0.0205 0.03947 0.041 0.0099 0.0205 0.01973 0.041 0.01973 0.0717s-0.0099 0.0512-0.01973 0.082c-0.0099 0.0205-0.01973 0.041-0.03947 0.0615-0.01973 0.0205-0.04933 0.041-0.06907 0.0512-0.0296 0.0102-0.0592 0.0102-0.09867 0.0102s-0.06907 0-0.09867-0.0205c-0.0296-0.0103-0.04933-0.0307-0.06907-0.0512l0.0296-0.041s0-0.0103 0.0099-0.0103h0.01973s0.0099 0 0.0099 0.0103c0.0099 0 0.01973 0.0102 0.0296 0.0102 0.0099 0.0102 0.01973 0.0205 0.0296 0.0205 0.01973 0.0102 0.0296 0.0102 0.04933 0.0102s0.03947 0 0.0592-0.0102c0.0099-0.0103 0.01973-0.0103 0.0296-0.0205 0.01973-0.0102 0.01973-0.0205 0.0296-0.041 0-0.0102 0.0099-0.0205 0.0099-0.041s-0.0099-0.0307-0.01973-0.041c-0.0099-0.0205-0.0296-0.0205-0.04934-0.0307-0.0099-0.0102-0.0296-0.0205-0.04933-0.0205-0.01973-0.0103-0.03947-0.0205-0.0592-0.0307s-0.03947-0.0205-0.04933-0.041c-0.0099-0.0205-0.01973-0.041-0.01973-0.0717 0-0.0205 0.0099-0.0512 0.01973-0.0717 0.0099-0.0205 0.01973-0.041 0.03947-0.0615 0.01973-0.0205 0.03947-0.0307 0.06907-0.041 0.0296-0.0102 0.0592-0.0205 0.0888-0.0205s0.0592 0.0102 0.0888 0.0205 0.04933 0.0307 0.06907 0.0512zm0.0592 0.44058c0-0.0102 0-0.0205 0.0099-0.0307 0-0.0102 0.0099-0.0102 0.0099-0.0205 0.0099-0.0102 0.01973-0.0102 0.01973-0.0205h0.0296 0.0296c0.0099 0.0103 0.01973 0.0103 0.01973 0.0205 0.0099 0.0103 0.01973 0.0103 0.01973 0.0205s0.0099 0.0205 0.0099 0.0307c0 0.0103-0.0099 0.0205-0.0099 0.0307s-0.0099 0.0205-0.01973 0.0205c0 0.0103-0.0099 0.0103-0.01973 0.0205h-0.0296-0.0296c0-0.0102-0.0099-0.0102-0.01973-0.0205 0 0-0.0099-0.0102-0.0099-0.0205-0.0099-0.0102-0.0099-0.0205-0.0099-0.0307zm0.0592-0.44058v-0.0307c0.0099-0.0103 0.0099-0.0205 0.01973-0.0205 0.0099-0.0103 0.0099-0.0103 0.01973-0.0205h0.0296 0.0296c0.0099 0.0102 0.01973 0.0102 0.01973 0.0205 0.0099 0 0.0099 0.0102 0.01973 0.0205v0.0307 0.0307c-0.0099 0.0102-0.0099 0.0102-0.01973 0.0205 0 0.0102-0.0099 0.0102-0.01973 0.0205h-0.0296-0.0296c-0.0099-0.0102-0.0099-0.0102-0.01973-0.0205-0.0099-0.0103-0.0099-0.0103-0.01973-0.0205v-0.0307zm0.592 0.50206c-0.01973 0-0.0296 0-0.0296-0.0103-0.0099 0-0.0099-0.0102-0.0099-0.0205l0.0099-0.12295c-0.0099 0.0205-0.0296 0.041-0.04933 0.0615-0.0099 0.0307-0.0296 0.041-0.04933 0.0615-0.01973 0.0102-0.03947 0.0205-0.0592 0.0307s-0.03947 0.0102-0.0592 0.0102c-0.04933 0-0.0888-0.0205-0.1184-0.0512-0.0296-0.041-0.03947-0.0922-0.03947-0.16394 0-0.0307 0-0.0615 0.0099-0.10246 0.0099-0.0307 0.01973-0.0615 0.0296-0.0922 0.0099-0.0205 0.0296-0.0512 0.03947-0.082 0.01973-0.0205 0.03947-0.041 0.0592-0.0615s0.03947-0.0307 0.06907-0.041c0.01973-0.0102 0.04933-0.0205 0.06907-0.0205 0.0296 0 0.0592 0.0102 0.07893 0.0205 0.0296 0.0103 0.04933 0.0205 0.0592 0.0512l0.039428-0.33797h0.09867l-0.09867 0.87092zm-0.2072-0.0717c0.01973 0 0.0296-0.0103 0.04933-0.0205s0.03947-0.0205 0.0592-0.041c0.0099-0.0205 0.0296-0.0512 0.04933-0.082 0.0099-0.0205 0.01973-0.0512 0.03947-0.0922l0.0099-0.1537c-0.0099-0.0205-0.0296-0.041-0.04933-0.041-0.01973-0.0103-0.03947-0.0205-0.0592-0.0205-0.0296 0-0.0592 0.0102-0.07893 0.0307-0.0296 0.0205-0.04933 0.041-0.0592 0.0717-0.01973 0.0307-0.0296 0.0615-0.03947 0.0922-0.0099 0.041-0.01973 0.0717-0.01973 0.1127s0.0099 0.082 0.0296 0.10246c0.0099 0.0307 0.03947 0.041 0.06907 0.041zm0.6216 0c0.0296 0 0.0592-0.0103 0.07893-0.0205 0.01973-0.0205 0.03947-0.041 0.0592-0.0615 0.01973-0.0307 0.0296-0.0615 0.03947-0.0922 0.0099-0.0307 0.0099-0.0717 0.0099-0.1127 0-0.0512-0.0099-0.0922-0.0296-0.12296-0.01973-0.0307-0.04933-0.041-0.0888-0.041-0.0296 0-0.0592 0.0102-0.07893 0.0205-0.01973 0.0205-0.03947 0.041-0.0592 0.0615-0.0099 0.0307-0.0296 0.0615-0.03947 0.0922 0 0.041-0.0099 0.0717-0.0099 0.11271 0 0.0512 0.0099 0.0922 0.0296 0.12295 0.01973 0.0307 0.04933 0.041 0.0888 0.041zm0 0.082c-0.03947 0-0.06907 0-0.0888-0.0102-0.0296-0.0205-0.04933-0.0307-0.06907-0.0512-0.01973-0.0205-0.0296-0.0512-0.04933-0.082-0.0099-0.0307-0.0099-0.0615-0.0099-0.10246 0-0.0512 0.0099-0.10246 0.01973-0.14345 0.01973-0.041 0.03947-0.082 0.0592-0.1127 0.0296-0.041 0.0592-0.0615 0.09867-0.082s0.06907-0.0307 0.1184-0.0307c0.0296 0 0.0592 0.0102 0.07893 0.0205 0.0296 0.0103 0.04933 0.0205 0.06907 0.041 0.01973 0.0307 0.03947 0.0512 0.04933 0.082 0.0099 0.0307 0.0099 0.0717 0.0099 0.10246 0 0.0512 0 0.10247-0.01973 0.14345-0.0099 0.0512-0.03947 0.082-0.0592 0.12295-0.0296 0.0307-0.0592 0.0512-0.09867 0.0717-0.0296 0.0205-0.06907 0.0307-0.10853 0.0307zm0.36507-0.0102 0.06907-0.59428h0.04933c0.01973 0 0.0296 0.0102 0.0296 0.0307l-0.0099 0.11271c0.0296-0.0512 0.06907-0.082 0.09867-0.11271 0.0296-0.0307 0.06907-0.041 0.10853-0.041 0.03947 0 0.06907 0.0205 0.0888 0.041 0.0099 0.0307 0.01973 0.0717 0.01973 0.12296 0.0296-0.0512 0.06907-0.0922 0.09867-0.12296 0.03947-0.0307 0.07893-0.041 0.1184-0.041s0.06907 0.0205 0.0888 0.041c0.01973 0.0307 0.0296 0.0717 0.0296 0.12296v0.0307 0.0307l-0.03947 0.37911h-0.09867l0.03947-0.37911v-0.0512c0-0.0307 0-0.0512-0.0099-0.0615-0.0099-0.0205-0.0296-0.0205-0.04933-0.0205s-0.0296 0-0.04933 0.0103c-0.01973 0.0102-0.0296 0.0205-0.04933 0.041-0.0099 0.0103-0.0296 0.0307-0.03947 0.0512-0.0099 0.0307-0.01973 0.0615-0.03947 0.0922l-0.0296 0.31763h-0.09866l0.03947-0.37911v-0.0307-0.0205c0-0.0307 0-0.0512-0.0099-0.0615-0.0099-0.0205-0.01973-0.0205-0.04933-0.0205-0.01973 0-0.0296 0-0.04933 0.0103-0.01973 0.0102-0.0296 0.0205-0.04933 0.041-0.0099 0.0205-0.0296 0.041-0.03947 0.0615-0.0099 0.0307-0.0296 0.0615-0.03947 0.0922l-0.0296 0.30738zm1.2925-0.59428-0.06907 0.59428h-0.09867l0.06907-0.59428zm0.03947-0.18443c0 0.0103-0.0099 0.0205-0.0099 0.0205 0 0.0102-0.0099 0.0205-0.01973 0.0307 0 0-0.0099 0.0103-0.01973 0.0103-0.0099 0.0102-0.01973 0.0102-0.0296 0.0102 0 0-0.0099 0-0.01973-0.0102-0.0099 0-0.01973-0.0103-0.01973-0.0103-0.0099-0.0102-0.01973-0.0205-0.01973-0.0307v-0.0205-0.0307c0-0.0102 0.0099-0.0205 0.01973-0.0307 0 0 0.0099-0.0103 0.01973-0.0103 0.0099-0.0102 0.01973-0.0102 0.0296-0.0102 0 0 0.0099 0 0.01973 0.0102 0.0099 0 0.01973 0.0103 0.01973 0.0103 0.0099 0.0102 0.01973 0.0205 0.01973 0.0307s0.0099 0.0205 0.0099 0.0307zm0.04933 0.77871 0.06907-0.59428h0.04933c0.0296 0 0.03947 0.0102 0.03947 0.0307l-0.0099 0.12296c0.0296-0.0512 0.06907-0.0922 0.10853-0.12296 0.0296-0.0205 0.06907-0.041 0.1184-0.041 0.03947 0 0.06907 0.0205 0.09867 0.0512 0.01973 0.0205 0.0296 0.0717 0.0296 0.12295v0.0307 0.0205l-0.03946 0.37911h-0.10853l0.04933-0.37911v-0.0205-0.0205c0-0.0307 0-0.0615-0.01973-0.0717-0.0099-0.0205-0.0296-0.0205-0.04933-0.0205s-0.03947 0-0.0592 0.0103c-0.01973 0.0102-0.03947 0.0307-0.04933 0.041-0.01973 0.0205-0.03947 0.041-0.04933 0.0717-0.01973 0.0307-0.0296 0.0615-0.03947 0.0922l-0.0296 0.29714zm0.58213-0.0615c0-0.0102 0.0099-0.0205 0.0099-0.0307s0.0099-0.0102 0.01973-0.0205c0-0.0102 0.0099-0.0102 0.01973-0.0205h0.0296 0.01973c0.0099 0.0103 0.01973 0.0103 0.0296 0.0205 0 0.0103 0.0099 0.0103 0.0099 0.0205 0.0099 0.0102 0.0099 0.0205 0.0099 0.0307 0 0.0103 0 0.0205-0.0099 0.0307 0 0.0102-0.0099 0.0205-0.0099 0.0205-0.0099 0.0103-0.01973 0.0103-0.0296 0.0205h-0.01973-0.0296c-0.0099-0.0102-0.01973-0.0102-0.01973-0.0205-0.0099 0-0.01973-0.0102-0.01973-0.0205 0-0.0102-0.0099-0.0205-0.0099-0.0307zm0.0592-0.44058c0-0.0103 0-0.0205 0.0099-0.0307 0-0.0103 0.0099-0.0205 0.0099-0.0205 0.0099-0.0103 0.01973-0.0103 0.0296-0.0205h0.01973 0.0296c0.0099 0.0102 0.01973 0.0102 0.01973 0.0205 0.0099 0 0.01973 0.0102 0.01973 0.0205 0 0.0102 0.0099 0.0205 0.0099 0.0307s-0.0099 0.0205-0.0099 0.0307-0.0099 0.0102-0.01973 0.0205c0 0.0102-0.0099 0.0102-0.01973 0.0205h-0.0296-0.01973c-0.0099-0.0102-0.01973-0.0102-0.0296-0.0205 0-0.0103-0.0099-0.0103-0.0099-0.0205-0.0099-0.0102-0.0099-0.0205-0.0099-0.0307zm0.2072 0.50206 0.09867-0.87092h0.09867l-0.04933 0.43034c0.01973-0.0205 0.0296-0.041 0.04933-0.0615s0.0296-0.041 0.04933-0.0615c0.01973-0.0102 0.03947-0.0205 0.0592-0.0307s0.03947-0.0102 0.0592-0.0102c0.04933 0 0.0888 0.0205 0.1184 0.0512 0.01973 0.041 0.03947 0.0922 0.03947 0.16394 0 0.0307-0.0099 0.0717-0.0099 0.10246-0.0099 0.0307-0.01973 0.0615-0.0296 0.0922-0.0099 0.0307-0.0296 0.0512-0.03947 0.082-0.01973 0.0205-0.03947 0.0512-0.0592 0.0615-0.01973 0.0205-0.03947 0.041-0.06907 0.0512-0.01973 0.0102-0.04933 0.0102-0.07893 0.0102s-0.0592 0-0.07893-0.0205c-0.0296-0.0103-0.04933-0.0307-0.0592-0.0512l-0.0099 0.0307c0 0.0102-0.0099 0.0205-0.0099 0.0307h-0.0296zm0.3256-0.52255c-0.01973 0-0.03947 0.0102-0.04933 0.0205-0.01973 0.0102-0.03947 0.0307-0.0592 0.0512s-0.0296 0.041-0.04933 0.0717c-0.0099 0.0307-0.0296 0.0615-0.03947 0.0922l-0.01973 0.16394c0.01973 0.0205 0.03947 0.0307 0.0592 0.041s0.03947 0.0103 0.0592 0.0103 0.03947 0 0.0592-0.0103c0.0099-0.0102 0.0296-0.0205 0.03947-0.041 0.01973-0.0103 0.0296-0.0307 0.03947-0.0512 0.0099-0.0205 0.01973-0.041 0.0296-0.0615 0.0099-0.0205 0.01973-0.041 0.01973-0.0717 0-0.0205 0.0099-0.041 0.0099-0.0717 0-0.041-0.0099-0.082-0.0296-0.10246-0.0099-0.0205-0.03947-0.041-0.06907-0.041zm0.48347 0.45083c0.01973 0 0.04933-0.0103 0.06907-0.0205 0.0296-0.0205 0.04933-0.041 0.0592-0.0615 0.01973-0.0307 0.0296-0.0615 0.03947-0.0922 0.0099-0.0307 0.0099-0.0717 0.0099-0.1127 0-0.0512-0.0099-0.0922-0.0296-0.12296-0.01973-0.0307-0.04933-0.041-0.0888-0.041-0.0296 0-0.04933 0.0102-0.07893 0.0205-0.01973 0.0205-0.03947 0.041-0.0592 0.0615-0.0099 0.0307-0.01973 0.0615-0.0296 0.0922-0.0099 0.041-0.01973 0.0717-0.01973 0.11271 0 0.0512 0.0099 0.0922 0.0296 0.12295 0.0296 0.0307 0.0592 0.041 0.09867 0.041zm-0.0099 0.082c-0.0296 0-0.0592 0-0.0888-0.0102-0.0296-0.0205-0.04933-0.0307-0.06907-0.0512-0.01973-0.0205-0.0296-0.0512-0.03947-0.082-0.0099-0.0307-0.01973-0.0615-0.01973-0.10246 0-0.0512 0.0099-0.10246 0.01973-0.14345 0.01973-0.041 0.03947-0.082 0.06907-0.1127 0.01973-0.041 0.04933-0.0615 0.0888-0.082s0.07893-0.0307 0.1184-0.0307c0.0296 0 0.0592 0.0102 0.0888 0.0205 0.01973 0.0103 0.04933 0.0205 0.0592 0.041 0.01973 0.0307 0.03947 0.0512 0.04933 0.082 0.0099 0.0307 0.01973 0.0717 0.01973 0.10246 0 0.0512-0.0099 0.10247-0.0296 0.14345-0.0099 0.0512-0.0296 0.082-0.0592 0.12295-0.0296 0.0307-0.0592 0.0512-0.0888 0.0717-0.03947 0.0205-0.07893 0.0307-0.1184 0.0307zm0.58214-0.082c0.01973 0 0.04933-0.0103 0.06907-0.0205 0.0296-0.0205 0.04933-0.041 0.0592-0.0615 0.01973-0.0307 0.0296-0.0615 0.03947-0.0922 0.0099-0.0307 0.0099-0.0717 0.0099-0.1127 0-0.0512-0.0099-0.0922-0.0296-0.12296-0.01973-0.0307-0.04933-0.041-0.0888-0.041-0.0296 0-0.0592 0.0102-0.07893 0.0205-0.01973 0.0205-0.03947 0.041-0.0592 0.0615-0.0099 0.0307-0.0296 0.0615-0.0296 0.0922-0.0099 0.041-0.01973 0.0717-0.01973 0.11271 0 0.0512 0.0099 0.0922 0.0296 0.12295 0.01973 0.0307 0.0592 0.041 0.09867 0.041zm-0.0099 0.082c-0.03947 0-0.0592 0-0.0888-0.0102-0.0296-0.0205-0.04933-0.0307-0.06907-0.0512-0.01973-0.0205-0.0296-0.0512-0.03947-0.082-0.01973-0.0307-0.01973-0.0615-0.01973-0.10246 0-0.0512 0.0099-0.10246 0.01973-0.14345 0.01973-0.041 0.03947-0.082 0.06907-0.1127 0.01973-0.041 0.04933-0.0615 0.0888-0.082s0.07893-0.0307 0.1184-0.0307c0.0296 0 0.0592 0.0102 0.0888 0.0205 0.01973 0.0103 0.03947 0.0205 0.0592 0.041 0.01973 0.0307 0.03947 0.0512 0.04933 0.082 0.0099 0.0307 0.01973 0.0717 0.01973 0.10246 0 0.0512-0.0099 0.10247-0.0296 0.14345-0.0099 0.0512-0.0296 0.082-0.0592 0.12295-0.0296 0.0307-0.0592 0.0512-0.09867 0.0717-0.0296 0.0205-0.06907 0.0307-0.10853 0.0307zm0.73014-0.51231c0 0.0102 0 0.0102-0.0099 0.0102 0 0.0102 0 0.0102-0.0099 0.0102l-0.0099-0.0102c-0.0099 0-0.01973-0.0102-0.0296-0.0102-0.0099-0.0103-0.01973-0.0103-0.0296-0.0205h-0.04933-0.04933c-0.0099 0.0102-0.01973 0.0102-0.0296 0.0205-0.0099 0.0102-0.01973 0.0205-0.0296 0.0307v0.041c0 0.0205 0 0.0307 0.0099 0.041 0.01973 0.0102 0.0296 0.0205 0.04933 0.0307s0.03947 0.0102 0.0592 0.0205c0.01973 0.0102 0.03947 0.0205 0.0592 0.0307 0.0099 0.0102 0.0296 0.0205 0.03947 0.041 0.0099 0.0205 0.01973 0.041 0.01973 0.0717s-0.0099 0.0512-0.01973 0.082c-0.0099 0.0205-0.01973 0.041-0.03947 0.0615-0.01973 0.0205-0.04933 0.041-0.06907 0.0512-0.0296 0.0102-0.0592 0.0102-0.09867 0.0102s-0.06907 0-0.09867-0.0205c-0.02959-0.0103-0.04933-0.0307-0.06906-0.0512l0.0296-0.041s0-0.0103 0.0099-0.0103h0.01973s0.0099 0 0.0099 0.0103c0.0099 0 0.01973 0.0102 0.0296 0.0102 0.0099 0.0102 0.01973 0.0205 0.0296 0.0205 0.01973 0.0102 0.0296 0.0102 0.04933 0.0102s0.03947 0 0.0592-0.0102c0.0099-0.0103 0.01973-0.0103 0.0296-0.0205 0.01973-0.0102 0.01973-0.0205 0.0296-0.041 0-0.0102 0.0099-0.0205 0.0099-0.041s-0.0099-0.0307-0.01973-0.041c-0.0099-0.0205-0.02961-0.0205-0.04934-0.0307-0.0099-0.0102-0.0296-0.0205-0.04933-0.0205-0.01973-0.0103-0.03947-0.0205-0.0592-0.0307s-0.03947-0.0205-0.04933-0.041c-0.0099-0.0205-0.01973-0.041-0.01973-0.0717 0-0.0205 0.0099-0.0512 0.01973-0.0717 0.0099-0.0205 0.01973-0.041 0.03947-0.0615 0.01973-0.0205 0.03947-0.0307 0.06907-0.041 0.0296-0.0102 0.0592-0.0205 0.0888-0.0205s0.0592 0.0102 0.0888 0.0205 0.04933 0.0307 0.06907 0.0512zm0.12827 0.38935v-0.0102-0.0103-0.0307c0-0.0102 0-0.0205 0.0099-0.041l0.0296-0.29714h-0.0592c-0.0099 0-0.0099-0.0103-0.01973-0.0103v-0.0102-0.0102-0.0103-0.0102c0-0.0103 0-0.0103 0.0099-0.0205l0.0888-0.0103 0.03947-0.18443c0-0.0103 0-0.0103 0.0099-0.0103 0-0.0102 0.0099-0.0102 0.0099-0.0102h0.0592l-0.0296 0.20492h0.148v0.082h-0.15787l-0.0296 0.28689c0 0.0205-0.0099 0.0307-0.0099 0.041v0.0205 0.0205c0 0.0205 0 0.041 0.0099 0.041 0.0099 0.0102 0.01973 0.0205 0.03947 0.0205 0.0099 0 0.01973 0 0.0296-0.0103h0.01973c0-0.0102 0.0099-0.0102 0.0099-0.0102 0-0.0102 0.0099-0.0102 0.0099-0.0102h0.0099v0.0102l0.01973 0.0512c-0.0099 0.0205-0.03947 0.0307-0.0592 0.041-0.01973 0.0102-0.04933 0.0102-0.06907 0.0102-0.03947 0-0.06907-0.0102-0.0888-0.0307s-0.0296-0.0512-0.0296-0.0922zm0.7992-0.35861c0 0.0307-0.0099 0.0512-0.01973 0.082-0.0099 0.0205-0.0296 0.041-0.04933 0.0512-0.0296 0.0205-0.06907 0.0307-0.1184 0.0512-0.04933 0.0102-0.10853 0.0205-0.18747 0.0307v0.0102 0.0103c0 0.0512 0.01973 0.0922 0.03947 0.12295 0.01973 0.0307 0.04933 0.041 0.09867 0.041h0.04933c0.0099-0.0103 0.0296-0.0103 0.03947-0.0205 0.0099 0 0.01973-0.0102 0.0296-0.0205 0.0099 0 0.0099-0.0102 0.01973-0.0205 0.0099 0 0.01973-0.0102 0.01973-0.0102h0.01973 0.01973l0.01973 0.041c-0.01973 0.0205-0.0296 0.0307-0.04933 0.0512-0.01973 0.0102-0.03947 0.0205-0.0592 0.0307-0.01973 0.0103-0.03947 0.0205-0.0592 0.0307h-0.06907c-0.0296 0-0.0592 0-0.0888-0.0102-0.0296-0.0205-0.04933-0.0307-0.06907-0.0512-0.01973-0.0205-0.0296-0.0512-0.03947-0.082-0.0099-0.0307-0.01973-0.0615-0.01973-0.10246 0-0.0307 0.0099-0.0512 0.0099-0.082 0.0099-0.0307 0.01973-0.0615 0.0296-0.0922 0.0099-0.0307 0.0296-0.0512 0.04933-0.0717 0.0099-0.0307 0.0296-0.0512 0.0592-0.0615 0.01973-0.0205 0.03947-0.0307 0.06907-0.041 0.0296-0.0102 0.0592-0.0205 0.0888-0.0205s0.04933 0.0102 0.06907 0.0102c0.0296 0.0102 0.03947 0.0205 0.0592 0.041 0.0099 0.0102 0.01973 0.0205 0.0296 0.041 0 0.0205 0.0099 0.0307 0.0099 0.041zm-0.1776-0.0512c-0.01973 0-0.04933 0-0.06907 0.0102-0.01973 0.0103-0.0296 0.0205-0.04933 0.041s-0.0296 0.041-0.03947 0.0615c-0.0099 0.0307-0.01973 0.0512-0.0296 0.082 0.0592-0.0102 0.10853-0.0205 0.148-0.0205 0.0296-0.0102 0.0592-0.0205 0.07893-0.041 0.01973-0.0103 0.0296-0.0205 0.03947-0.0307 0-0.0102 0.0099-0.0307 0.0099-0.041 0-0.0102-0.0099-0.0205-0.0099-0.0205 0-0.0103-0.0099-0.0205-0.0099-0.0205-0.0099-0.0103-0.01973-0.0103-0.0296-0.0205h-0.03947zm0.2368 0.52255 0.06907-0.59428h0.04933c0.0099 0 0.01973 0 0.0296 0.0102 0.0099 0 0.0099 0.0103 0.0099 0.0205v0.0103 0.0102 0.0103l-0.0099 0.10246c0.01973-0.0512 0.04933-0.0922 0.07893-0.12295 0.0296-0.0307 0.06907-0.0512 0.09867-0.0512 0.01973 0 0.0296 0.0102 0.04933 0.0205l-0.01973 0.0922c-0.01973 0-0.03947-0.0102-0.04933-0.0102-0.03947 0-0.06907 0.0205-0.09867 0.0615-0.0296 0.0307-0.0592 0.0922-0.07893 0.16393l-0.0296 0.27665zm0.7696-0.50206c0 0.0102 0 0.0102-0.0099 0.0102 0 0.0102 0 0.0102-0.0099 0.0102 0 0-0.0099-0.0102-0.01973-0.0102 0 0-0.0099-0.0102-0.01973-0.0102-0.0099-0.0103-0.01973-0.0103-0.0296-0.0205h-0.04933-0.04933c-0.0099 0.0102-0.01973 0.0102-0.0296 0.0205-0.0099 0.0102-0.01973 0.0205-0.0296 0.0307 0 0.0102-0.0099 0.0307-0.0099 0.041 0 0.0205 0.0099 0.0307 0.01973 0.041 0.0099 0.0102 0.0296 0.0205 0.04933 0.0307s0.03947 0.0102 0.0592 0.0205c0.01973 0.0102 0.03947 0.0205 0.04933 0.0307 0.01973 0.0102 0.03947 0.0205 0.04933 0.041 0.0099 0.0205 0.01973 0.041 0.01973 0.0717s-0.0099 0.0512-0.01973 0.082c-0.0099 0.0205-0.01973 0.041-0.03947 0.0615-0.01973 0.0205-0.04933 0.041-0.07893 0.0512-0.01973 0.0102-0.04933 0.0102-0.0888 0.0102s-0.06907 0-0.09867-0.0205c-0.0296-0.0103-0.04933-0.0307-0.06907-0.0512l0.0296-0.041s0-0.0103 0.0099-0.0103h0.0099c0.0099 0 0.01973 0 0.01973 0.0103 0.0099 0 0.01973 0.0102 0.0296 0.0102 0 0.0102 0.01973 0.0205 0.0296 0.0205 0.0099 0.0102 0.0296 0.0102 0.04933 0.0102s0.03947 0 0.0592-0.0102c0.0099-0.0103 0.01973-0.0103 0.0296-0.0205 0.0099-0.0102 0.01973-0.0205 0.0296-0.041 0-0.0102 0.0099-0.0205 0.0099-0.041s-0.0099-0.0307-0.01973-0.041c-0.0099-0.0205-0.0296-0.0205-0.04933-0.0307-0.0099-0.0102-0.0296-0.0205-0.04933-0.0205-0.0296-0.0103-0.04933-0.0205-0.0592-0.0307-0.01973-0.0102-0.03947-0.0205-0.04933-0.041-0.0099-0.0205-0.01973-0.041-0.01973-0.0717 0-0.0205 0.0099-0.0512 0.01973-0.0717 0.0099-0.0205 0.01973-0.041 0.03947-0.0615 0.01973-0.0205 0.03947-0.0307 0.06907-0.041 0.01973-0.0102 0.04933-0.0205 0.0888-0.0205 0.0296 0 0.0592 0.0102 0.0888 0.0205s0.04933 0.0307 0.06907 0.0512z" fill="#e6e6e6"/>
   <path d="m75.989 180.44v-0.0102-0.0103-0.0307c0-0.0102 0.0099-0.0205 0.0099-0.041l0.0296-0.29714h-0.0592c-0.0099 0-0.0099-0.0103-0.0099-0.0103-0.0099 0-0.0099-0.0102-0.0099-0.0102v-0.0102-0.0103c0-0.0102 0-0.0102 0.0099-0.0102v-0.0205l0.0888-0.0103 0.03947-0.18443c0-0.0103 0-0.0103 0.0099-0.0103 0-0.0102 0.0099-0.0102 0.0099-0.0102h0.0592l-0.0296 0.20492h0.15787l-0.0099 0.082h-0.1579l-0.0296 0.28689c0 0.0205 0 0.0307-0.0099 0.041v0.0205 0.0205c0 0.0205 0.0099 0.041 0.0099 0.041 0.0099 0.0102 0.0296 0.0205 0.03947 0.0205 0.0099 0 0.01973 0 0.0296-0.0103h0.01973c0-0.0102 0.0099-0.0102 0.0099-0.0102l0.0099-0.0102h0.0099v0.0102l0.0296 0.0512c-0.01973 0.0205-0.03947 0.0307-0.06907 0.041-0.01973 0.0102-0.04933 0.0102-0.06907 0.0102-0.03947 0-0.06907-0.0102-0.0888-0.0307s-0.0296-0.0512-0.0296-0.0922zm0.3256 0.0512v-0.0307c0.0099-0.0102 0.0099-0.0102 0.01973-0.0205 0-0.0102 0.0099-0.0102 0.01973-0.0205h0.0296 0.0296c0.0099 0.0103 0.0099 0.0103 0.01973 0.0205 0.0099 0.0103 0.0099 0.0103 0.01973 0.0205v0.0307 0.0307c-0.0099 0.0102-0.0099 0.0205-0.01973 0.0205-0.0099 0.0102-0.0099 0.0102-0.01973 0.0205h-0.0296-0.0296c-0.0099-0.0102-0.01973-0.0102-0.01973-0.0205-0.0099 0-0.0099-0.0103-0.01973-0.0205v-0.0307zm0.0592-0.44058v-0.0307c0-0.0103 0.0099-0.0205 0.01973-0.0205 0-0.0103 0.0099-0.0103 0.01973-0.0205h0.0296 0.0296c0 0.0102 0.0099 0.0102 0.01973 0.0205 0 0 0.0099 0.0102 0.0099 0.0205 0.0099 0.0102 0.0099 0.0205 0.0099 0.0307s0 0.0205-0.0099 0.0307c0 0.0102-0.0099 0.0102-0.0099 0.0205-0.0099 0.0102-0.01973 0.0102-0.01973 0.0205h-0.0296-0.0296c-0.0099-0.0102-0.01973-0.0102-0.01973-0.0205-0.0099-0.0103-0.01973-0.0103-0.01973-0.0205v-0.0307zm0.16773 0.70698 0.09867-0.7992h0.04933c0.01973 0 0.0296 0.0102 0.0296 0.0307l-0.0099 0.1332c0.01973-0.0205 0.0296-0.0512 0.04933-0.0717s0.03947-0.041 0.0592-0.0512c0.01973-0.0205 0.03947-0.0307 0.0592-0.041 0.01973 0 0.03947-0.0102 0.0592-0.0102 0.04933 0 0.0888 0.0205 0.1184 0.0615 0.01973 0.0307 0.03947 0.082 0.03947 0.1537 0 0.041-0.0099 0.0717-0.0099 0.10246-0.0099 0.0307-0.01973 0.0615-0.0296 0.0922-0.0099 0.0307-0.0296 0.0512-0.03947 0.082-0.01973 0.0205-0.03947 0.0512-0.0592 0.0615-0.01973 0.0205-0.04933 0.041-0.06907 0.0512-0.01973 0.0102-0.04933 0.0102-0.07893 0.0102s-0.04933 0-0.07893-0.0102c-0.01973-0.0205-0.03947-0.0307-0.0592-0.0512l-0.0296 0.25615zm0.3552-0.72747c-0.01973 0-0.03947 0.0102-0.0592 0.0205-0.0099 0.0102-0.0296 0.0307-0.04933 0.0512s-0.0296 0.0512-0.04933 0.0717c-0.0099 0.0307-0.0296 0.0615-0.03947 0.10246l-0.01973 0.1537c0.01973 0.0205 0.0296 0.0307 0.0592 0.041 0.01973 0.0103 0.03947 0.0103 0.0592 0.0103s0.03947 0 0.04933-0.0103c0.01973-0.0102 0.03947-0.0205 0.04933-0.0307 0.01973-0.0205 0.0296-0.041 0.03947-0.0615 0.0099-0.0103 0.01973-0.041 0.0296-0.0615 0.0099-0.0205 0.0099-0.041 0.01973-0.0717 0-0.0205 0.0099-0.041 0.0099-0.0717 0-0.041-0.0099-0.082-0.0296-0.10246-0.01973-0.0205-0.03947-0.041-0.06907-0.041zm0.2664 0.52255 0.10853-0.87092h0.09867l-0.09867 0.87092zm0.69067 0h-0.0592c-0.0099 0-0.01973 0-0.01973-0.0102-0.0099 0-0.0099-0.0103-0.0099-0.0205l0.0099-0.12295c-0.0099 0.0307-0.0296 0.0512-0.03947 0.0717-0.01973 0.0205-0.03947 0.0307-0.04933 0.0512-0.01973 0.0102-0.03947 0.0205-0.0592 0.0307s-0.03947 0.0102-0.0592 0.0102c-0.0296 0-0.04933 0-0.0592-0.0102-0.01973-0.0102-0.03947-0.0205-0.04933-0.041-0.01973-0.0205-0.0296-0.041-0.0296-0.0717-0.0099-0.0205-0.0099-0.0512-0.0099-0.082 0-0.041 0-0.0717 0.0099-0.11271 0.0099-0.0307 0.01973-0.0615 0.03947-0.0922 0.0099-0.0307 0.0296-0.0512 0.04933-0.082 0.01973-0.0205 0.04933-0.041 0.07893-0.0615 0.01973-0.0205 0.04933-0.0307 0.0888-0.041 0.0296-0.0102 0.0592-0.0205 0.0888-0.0205s0.04933 0 0.07893 0.0102c0.01973 0 0.03947 0.0102 0.06907 0.0205zm-0.24667-0.0717c0.01973 0 0.0296-0.0103 0.04933-0.0205s0.03947-0.0307 0.04933-0.0512c0.01973-0.0205 0.0296-0.041 0.04933-0.0717 0.0099-0.0307 0.01973-0.0615 0.03947-0.0922l0.01974-0.20493c-0.0099-0.0102-0.01973-0.0102-0.01973-0.0102h-0.0296c-0.01973 0-0.03947 0-0.06907 0.0102-0.01973 0.0103-0.03947 0.0205-0.0592 0.0307s-0.0296 0.0307-0.04933 0.0512c-0.0099 0.0205-0.0296 0.041-0.03947 0.0615-0.0099 0.0205-0.01973 0.0512-0.01973 0.0717-0.0099 0.0307-0.0099 0.0512-0.0099 0.082 0 0.0922 0.0296 0.14345 0.0888 0.14345zm0.39467 0.0717 0.06907-0.59428h0.04933c0.01973 0 0.03947 0.0102 0.03947 0.0307l-0.0099 0.12296c0.0296-0.0512 0.0592-0.0922 0.09867-0.12296 0.03947-0.0205 0.07893-0.041 0.1184-0.041 0.04933 0 0.07893 0.0205 0.10853 0.0512 0.01973 0.0205 0.0296 0.0717 0.0296 0.12295v0.0307 0.0205l-0.04933 0.37911h-0.09867l0.04936-0.37911v-0.0205-0.0205c0-0.0307-0.0099-0.0615-0.01973-0.0717-0.0099-0.0205-0.0296-0.0205-0.04933-0.0205s-0.03947 0-0.0592 0.0103c-0.01973 0.0102-0.03947 0.0307-0.0592 0.041-0.0099 0.0205-0.0296 0.041-0.03947 0.0717-0.01973 0.0307-0.0296 0.0615-0.03947 0.0922l-0.03947 0.29714zm1.0557-0.47132c0 0.0307 0 0.0512-0.0099 0.082-0.0099 0.0205-0.0296 0.041-0.0592 0.0512-0.0296 0.0205-0.0592 0.0307-0.10853 0.0512-0.04933 0.0102-0.10853 0.0205-0.18747 0.0307v0.0102 0.0103c0 0.0512 0.0099 0.0922 0.0296 0.12295 0.0296 0.0307 0.0592 0.041 0.10853 0.041h0.03947c0.01973-0.0103 0.0296-0.0103 0.03947-0.0205 0.0099 0 0.01973-0.0102 0.0296-0.0205 0.0099 0 0.01973-0.0102 0.0296-0.0205 0 0 0.0099-0.0102 0.01973-0.0102h0.01973 0.0099l0.0296 0.041c-0.01973 0.0205-0.03947 0.0307-0.0592 0.0512-0.01973 0.0102-0.03947 0.0205-0.04933 0.0307-0.01973 0.0103-0.03947 0.0205-0.06907 0.0307h-0.06907c-0.0296 0-0.0592 0-0.07893-0.0102-0.0296-0.0205-0.04933-0.0307-0.06907-0.0512-0.01973-0.0205-0.03947-0.0512-0.04933-0.082-0.0099-0.0307-0.0099-0.0615-0.0099-0.10246 0-0.0307 0-0.0512 0.0099-0.082 0.0099-0.0307 0.01973-0.0615 0.0296-0.0922 0.0099-0.0307 0.01973-0.0512 0.03947-0.0717 0.01973-0.0307 0.03947-0.0512 0.0592-0.0615 0.01973-0.0205 0.04933-0.0307 0.07893-0.041 0.01973-0.0102 0.04933-0.0205 0.07893-0.0205s0.0592 0.0102 0.07893 0.0102c0.01973 0.0102 0.03947 0.0205 0.04933 0.041 0.01973 0.0102 0.0296 0.0205 0.0296 0.041 0.0099 0.0205 0.0099 0.0307 0.0099 0.041zm-0.16773-0.0512c-0.0296 0-0.04933 0-0.06907 0.0102-0.01973 0.0103-0.03947 0.0205-0.04933 0.041-0.01973 0.0205-0.0296 0.041-0.03947 0.0615-0.01973 0.0307-0.01973 0.0512-0.0296 0.082 0.0592-0.0102 0.10853-0.0205 0.13813-0.0205 0.03947-0.0102 0.06907-0.0205 0.07893-0.041 0.01973-0.0103 0.03947-0.0205 0.03947-0.0307 0.0099-0.0102 0.0099-0.0307 0.0099-0.041v-0.0205c-0.0099-0.0103-0.0099-0.0205-0.01973-0.0205 0-0.0103-0.0099-0.0103-0.01973-0.0205h-0.03947zm0.60187 0.0205c0 0.0102 0 0.0102-0.0099 0.0102 0 0.0103 0 0.0103-0.0099 0.0103l-0.0099-0.0103c-0.0099 0-0.01973-0.0102-0.0296-0.0102-0.0099-0.0103-0.01973-0.0103-0.0296-0.0205h-0.04933-0.03947c-0.01973 0.0102-0.0296 0.0102-0.03947 0.0205-0.0099 0.0102-0.01973 0.0205-0.0296 0.0307v0.041c0 0.0205 0 0.0307 0.0099 0.041 0.01973 0.0102 0.0296 0.0205 0.04933 0.0307s0.03947 0.0102 0.0592 0.0205c0.01973 0.0102 0.03947 0.0205 0.0592 0.0307 0.0099 0.0102 0.0296 0.0205 0.03947 0.041 0.0099 0.0205 0.01973 0.041 0.01973 0.0717s-0.0099 0.0512-0.01973 0.082c-0.0099 0.0205-0.01973 0.041-0.03947 0.0615-0.01973 0.0205-0.04933 0.041-0.06907 0.0512-0.0296 0.0102-0.0592 0.0102-0.09867 0.0102s-0.06907 0-0.09867-0.0205c-0.0296-0.0102-0.04933-0.0307-0.06907-0.0512l0.0296-0.041 0.0099-0.0103h0.01973s0.0099 0 0.0099 0.0103c0.0099 0 0.01973 0.0102 0.0296 0.0102 0.0099 0.0102 0.01973 0.0205 0.0296 0.0205 0.01973 0.0102 0.0296 0.0102 0.0592 0.0102 0.0099 0 0.0296 0 0.04933-0.0102 0.0099-0.0103 0.01973-0.0103 0.0296-0.0205 0.01973-0.0102 0.01973-0.0205 0.0296-0.041 0-0.0102 0.0099-0.0205 0.0099-0.041s-0.0099-0.0307-0.01973-0.041c-0.0099-0.0205-0.0296-0.0205-0.04933-0.0307-0.0099-0.0102-0.0296-0.0205-0.04933-0.0205-0.01973-0.0103-0.03947-0.0205-0.0592-0.0307s-0.0296-0.0205-0.04933-0.041c-0.0099-0.0205-0.0099-0.041-0.0099-0.0717 0-0.0205 0-0.0512 0.0099-0.0717s0.01973-0.041 0.03947-0.0615c0.01973-0.0205 0.03947-0.0307 0.06907-0.041 0.0296-0.0102 0.0592-0.0205 0.0888-0.0205s0.0592 0.0102 0.0888 0.0205c0.0296 0.0102 0.04933 0.0307 0.06907 0.0512zm0.07893-0.0922h0.07893c0.0099 0 0.0099 0 0.01973 0.0102 0 0 0.0099 0 0.0099 0.0103l0.04933 0.38935v0.041 0.0307c0.0099-0.0102 0.0099-0.0205 0.01973-0.0307 0-0.0205 0.0099-0.0307 0.0099-0.041l0.15782-0.38935c0.0099-0.0103 0.0099-0.0103 0.0099-0.0205h0.01973 0.03947 0.01973c0.0099 0.0102 0.0099 0.0102 0.0099 0.0205l0.0592 0.38935c0.0099 0.0103 0.0099 0.0205 0.0099 0.041v0.0307c0.0099-0.0102 0.0099-0.0205 0.01973-0.0307 0-0.0205 0-0.0307 0.0099-0.041l0.148-0.38935c0-0.0103 0-0.0103 0.0099-0.0103 0-0.0102 0.0099-0.0102 0.01973-0.0102h0.06907l-0.2368 0.59428h-0.07893c-0.0099 0-0.01973 0-0.01973-0.0205l-0.06907-0.3996v-0.0205c0-0.0102 0-0.0102-0.0099-0.0205v0.0205c0 0.0102-0.0099 0.0102-0.0099 0.0205l-0.16773 0.3996c0 0.0205-0.0099 0.0205-0.01973 0.0205h-0.06917zm1.2235 0.59428h-0.04933c-0.0099 0-0.01973 0-0.0296-0.0103v-0.0205l0.0099-0.12295c-0.01973 0.0307-0.0296 0.0512-0.04933 0.0717-0.0099 0.0205-0.0296 0.0307-0.04933 0.0512-0.01973 0.0102-0.03947 0.0205-0.04933 0.0307-0.01973 0.0102-0.03947 0.0102-0.06907 0.0102-0.01973 0-0.03947 0-0.0592-0.0102s-0.0296-0.0205-0.04933-0.041c-0.0099-0.0205-0.01973-0.041-0.0296-0.0717-0.0099-0.0205-0.0099-0.0512-0.0099-0.082 0-0.041 0.0099-0.0717 0.0099-0.1127 0.0099-0.0307 0.0296-0.0615 0.03947-0.0922 0.01973-0.0307 0.03947-0.0512 0.0592-0.082 0.01973-0.0205 0.04933-0.041 0.06907-0.0615 0.0296-0.0205 0.0592-0.0307 0.0888-0.041 0.0296-0.0102 0.06907-0.0205 0.09867-0.0205s0.04933 0 0.06907 0.0102c0.0296 0 0.04933 0.0102 0.06907 0.0205zm-0.24667-0.0717c0.01973 0 0.03947-0.0103 0.0592-0.0205s0.0296-0.0307 0.04933-0.0512 0.0296-0.041 0.03947-0.0717c0.01973-0.0307 0.0296-0.0615 0.03947-0.0922l0.0296-0.20493c-0.0099-0.0102-0.01973-0.0102-0.0296-0.0102h-0.01973c-0.0296 0-0.04933 0-0.06907 0.0102-0.01973 0.0103-0.03947 0.0205-0.0592 0.0307s-0.03947 0.0307-0.04933 0.0512c-0.01973 0.0205-0.0296 0.041-0.03947 0.0615-0.0099 0.0205-0.01973 0.0512-0.0296 0.0717 0 0.0307-0.0099 0.0512-0.0099 0.082 0 0.0922 0.0296 0.14345 0.0888 0.14345zm0.4144 0.0717 0.09867-0.87092h0.09867l-0.09867 0.87092zm0.46374-0.87092-0.0592 0.51231h0.01973 0.01973s0.0099 0 0.0099-0.0103l0.19733-0.20492c0-0.0103 0.0099-0.0103 0.0099-0.0103 0.0099-0.0102 0.01973-0.0102 0.0296-0.0102h0.0888l-0.22699 0.23567c-0.0099 0.0102-0.0099 0.0102-0.01973 0.0205l-0.0099 0.0102s0.0099 0.0103 0.0099 0.0205c0.0099 0 0.0099 0.0102 0.0099 0.0205l0.1776 0.28689h-0.0888-0.01973s-0.0099-0.0103-0.0099-0.0205l-0.148-0.24591c-0.0099 0-0.0099-0.0103-0.01973-0.0103 0 0-0.0099-0.0102-0.01973-0.0102h-0.01973l-0.0296 0.28689h-0.10855l0.10853-0.87092zm0.7696 0.3996c0 0.0307 0 0.0512-0.01973 0.082-0.0099 0.0205-0.01973 0.041-0.04933 0.0512-0.0296 0.0205-0.06907 0.0307-0.1184 0.0512-0.03947 0.0102-0.10853 0.0205-0.1776 0.0307v0.0102 0.0103c0 0.0512 0.0099 0.0922 0.0296 0.12295 0.01973 0.0307 0.0592 0.041 0.09867 0.041h0.04933c0.01973-0.0103 0.0296-0.0103 0.03947-0.0205 0.0099 0 0.01973-0.0102 0.0296-0.0205 0.0099 0 0.01973-0.0102 0.01973-0.0205 0.0099 0 0.01973-0.0102 0.01973-0.0102h0.01973 0.01973l0.0296 0.041c-0.01973 0.0205-0.03947 0.0307-0.0592 0.0512-0.01973 0.0102-0.03947 0.0205-0.0592 0.0307-0.01973 0.0103-0.03947 0.0205-0.0592 0.0307h-0.06907c-0.0296 0-0.0592 0-0.0888-0.0102-0.01973-0.0205-0.04933-0.0307-0.06907-0.0512-0.0099-0.0205-0.0296-0.0512-0.03947-0.082-0.0099-0.0307-0.0099-0.0615-0.0099-0.10246 0-0.0307 0-0.0512 0.0099-0.082 0-0.0307 0.0099-0.0615 0.01973-0.0922 0.01973-0.0307 0.0296-0.0512 0.04933-0.0717 0.01973-0.0307 0.03947-0.0512 0.0592-0.0615 0.01973-0.0205 0.04933-0.0307 0.06907-0.041 0.0296-0.0102 0.0592-0.0205 0.0888-0.0205s0.0592 0.0102 0.07893 0.0102c0.01973 0.0102 0.03947 0.0205 0.04933 0.041 0.0099 0.0102 0.01973 0.0205 0.0296 0.041 0.0099 0.0205 0.0099 0.0307 0.0099 0.041zm-0.1776-0.0512c-0.01973 0-0.03947 0-0.0592 0.0102-0.01973 0.0103-0.03947 0.0205-0.0592 0.041-0.0099 0.0205-0.0296 0.041-0.03947 0.0615-0.0099 0.0307-0.01973 0.0512-0.01973 0.082 0.0592-0.0102 0.09867-0.0205 0.13813-0.0205 0.0296-0.0102 0.0592-0.0205 0.07893-0.041 0.01973-0.0103 0.0296-0.0205 0.03947-0.0307 0.0099-0.0102 0.0099-0.0307 0.0099-0.041 0-0.0102 0-0.0205-0.0099-0.0205 0-0.0103 0-0.0205-0.0099-0.0205-0.0099-0.0103-0.01973-0.0103-0.0296-0.0205h-0.03947zm0.24667 0.52255 0.06907-0.59428h0.04933c0.0099 0 0.01973 0 0.01973 0.0102 0.0099 0 0.0099 0.0103 0.0099 0.0205v0.0103 0.0102 0.0103l-0.0099 0.10246c0.0296-0.0512 0.04933-0.0922 0.0888-0.12295 0.0296-0.0307 0.0592-0.0512 0.0888-0.0512 0.01973 0 0.03947 0.0102 0.04933 0.0205l-0.01973 0.0922c-0.01973 0-0.0296-0.0102-0.04933-0.0102-0.03947 0-0.06907 0.0205-0.09867 0.0615-0.0296 0.0307-0.04933 0.0922-0.06907 0.16393l-0.0296 0.27665z" fill="#e6e6e6"/>
   <path d="m95.426 179.84s0 0.0102-0.0099 0.0102h-0.0099c-0.0099 0-0.01973 0-0.01973-0.0102-0.0099 0-0.01973-0.0102-0.0296-0.0205-0.0099-0.0102-0.0296-0.0102-0.03947-0.0205-0.01973-0.0102-0.03946-0.0102-0.0592-0.0102-0.0296 0-0.04933 0-0.06907 0.0102-0.01973 0.0103-0.0296 0.0205-0.04933 0.0307-0.0099 0.0102-0.01973 0.0307-0.0296 0.0512 0 0.0205-0.0099 0.0307-0.0099 0.0512s0.0099 0.041 0.01974 0.0615c0.0099 0.0102 0.01973 0.0205 0.0296 0.0307 0.01973 0.0102 0.03946 0.0205 0.04933 0.0307 0.01973 0 0.03946 0.0102 0.0592 0.0205s0.03947 0.0205 0.0592 0.0307 0.03947 0.0205 0.04933 0.0307c0.01973 0.0205 0.0296 0.0307 0.03947 0.0512 0.0099 0.0205 0.0099 0.0512 0.0099 0.082 0 0.0307 0 0.0717-0.01974 0.11271-0.0099 0.0307-0.0296 0.0615-0.04933 0.0922-0.0296 0.0205-0.0592 0.041-0.09867 0.0615-0.0296 0.0205-0.06907 0.0205-0.1184 0.0205-0.03947 0-0.0888-0.0102-0.12827-0.0307-0.03947-0.0205-0.06907-0.041-0.0888-0.0717l0.03946-0.0615 0.0099-0.0102h0.0099c0.0099 0 0.01973 0 0.0296 0.0102 0 0.0103 0.0099 0.0205 0.0296 0.0307 0.0099 0.0102 0.0296 0.0205 0.04934 0.0307 0.01973 0.0102 0.03947 0.0102 0.06907 0.0102 0.01973 0 0.04933 0 0.06907-0.0102 0.01973-0.0102 0.03947-0.0205 0.04933-0.0307 0.01973-0.0205 0.0296-0.041 0.03946-0.0615 0.0099-0.0205 0.0099-0.041 0.0099-0.0717 0-0.0205 0-0.041-0.0099-0.0512s-0.01973-0.0307-0.03946-0.041c-0.0099-0.0102-0.0296-0.0102-0.04933-0.0205-0.01973-0.0102-0.03947-0.0205-0.0592-0.0205-0.01973-0.0103-0.03946-0.0205-0.0592-0.0307-0.01973-0.0102-0.0296-0.0205-0.04933-0.0307-0.0099-0.0205-0.0296-0.0307-0.03947-0.0615 0-0.0205-0.0099-0.041-0.0099-0.0717 0-0.041 0.0099-0.0717 0.01973-0.10246 0.0099-0.0307 0.0296-0.0615 0.04933-0.082 0.0296-0.0307 0.04933-0.0512 0.0888-0.0615 0.0296-0.0102 0.06907-0.0205 0.10854-0.0205 0.03946 0 0.07893 0.0103 0.10853 0.0205 0.03947 0.0205 0.0592 0.041 0.0888 0.0717zm0.5328 0.23566c0 0.0307 0 0.0512-0.0099 0.082-0.0099 0.0205-0.0296 0.041-0.0592 0.0512-0.0296 0.0205-0.06907 0.0307-0.1184 0.0512-0.03946 0.0102-0.10853 0.0205-0.1776 0.0307v0.0102 0.0103c0 0.0512 0.0099 0.0922 0.0296 0.12295 0.01974 0.0307 0.0592 0.041 0.09867 0.041h0.04933c0.01974-0.0103 0.0296-0.0103 0.03947-0.0205 0.0099 0 0.01973-0.0102 0.0296-0.0205 0.0099 0 0.01974-0.0102 0.01974-0.0205 0.0099 0 0.01973-0.0102 0.01973-0.0102h0.01973 0.01973l0.0296 0.041c-0.01974 0.0205-0.03947 0.0307-0.0592 0.0512-0.01973 0.0102-0.03947 0.0205-0.0592 0.0307-0.01973 0.0103-0.03946 0.0205-0.0592 0.0307h-0.06907c-0.0296 0-0.0592 0-0.0888-0.0102-0.01973-0.0205-0.04933-0.0307-0.0592-0.0512-0.01973-0.0205-0.03947-0.0512-0.04933-0.082-0.0099-0.0307-0.0099-0.0615-0.0099-0.10246 0-0.0307 0-0.0512 0.0099-0.082 0-0.0307 0.0099-0.0615 0.01973-0.0922 0.01973-0.0307 0.0296-0.0512 0.04933-0.0717 0.01973-0.0307 0.03946-0.0512 0.0592-0.0615 0.01974-0.0205 0.04933-0.0307 0.06907-0.041 0.0296-0.0102 0.0592-0.0205 0.0888-0.0205s0.0592 0.0102 0.07893 0.0102c0.01973 0.0102 0.03946 0.0205 0.04933 0.041 0.0099 0.0102 0.01974 0.0205 0.0296 0.041 0.0099 0.0205 0.0099 0.0307 0.0099 0.041zm-0.1776-0.0512c-0.01973 0-0.03947 0-0.0592 0.0102-0.01974 0.0103-0.03947 0.0205-0.0592 0.041-0.0099 0.0205-0.0296 0.041-0.03947 0.0615-0.0099 0.0307-0.01973 0.0512-0.01973 0.082 0.0592-0.0102 0.09867-0.0205 0.13813-0.0205 0.03947-0.0102 0.0592-0.0205 0.07893-0.041 0.01973-0.0103 0.0296-0.0205 0.03947-0.0307 0.0099-0.0102 0.0099-0.0307 0.0099-0.041 0-0.0102 0-0.0205-0.0099-0.0205 0-0.0103 0-0.0205-0.0099-0.0205-0.0099-0.0103-0.01973-0.0103-0.0296-0.0205h-0.03947zm0.67094 0.52255h-0.0592c-0.0099 0-0.01973 0-0.0296-0.0103v-0.0205l0.0099-0.12295c-0.01973 0.0307-0.0296 0.0512-0.04933 0.0717-0.0099 0.0205-0.0296 0.0307-0.04933 0.0512-0.01973 0.0102-0.0296 0.0205-0.04933 0.0307-0.01974 0.0102-0.03947 0.0102-0.0592 0.0102-0.0296 0-0.04933 0-0.06907-0.0102-0.01973-0.0102-0.0296-0.0205-0.04933-0.041-0.0099-0.0205-0.01973-0.041-0.0296-0.0717 0-0.0205-0.0099-0.0512-0.0099-0.082 0-0.041 0.0099-0.0717 0.01973-0.1127 0-0.0307 0.01973-0.0615 0.0296-0.0922 0.01973-0.0307 0.03947-0.0512 0.0592-0.082 0.01973-0.0205 0.04933-0.041 0.06907-0.0615 0.0296-0.0205 0.0592-0.0307 0.0888-0.041 0.0296-0.0102 0.06907-0.0205 0.09867-0.0205s0.04933 0 0.06906 0.0102c0.0296 0 0.04933 0.0102 0.06907 0.0205zm-0.25653-0.0717c0.01973 0 0.03947-0.0103 0.0592-0.0205s0.0296-0.0307 0.04933-0.0512 0.0296-0.041 0.04933-0.0717c0.0099-0.0307 0.01973-0.0615 0.0296-0.0922l0.0296-0.20493c-0.0099-0.0102-0.01973-0.0102-0.0296-0.0102h-0.01974c-0.01973 0-0.04933 0-0.06907 0.0102-0.01973 0.0103-0.03946 0.0205-0.0592 0.0307s-0.03947 0.0307-0.04933 0.0512c-0.01973 0.0205-0.0296 0.041-0.03947 0.0615-0.0099 0.0205-0.01973 0.0512-0.0296 0.0717v0.082c0 0.0922 0.01973 0.14345 0.07893 0.14345zm0.40453 0.0717 0.06907-0.59428h0.04933c0.0099 0 0.01973 0 0.01973 0.0102 0.0099 0 0.0099 0.0103 0.0099 0.0205v0.0103 0.0102 0.0103l-0.0099 0.10246c0.0296-0.0512 0.0592-0.0922 0.0888-0.12295 0.0296-0.0307 0.0592-0.0512 0.09866-0.0512 0.0099 0 0.0296 0.0102 0.03947 0.0205l-0.0099 0.0922c-0.01973 0-0.03946-0.0102-0.0592-0.0102-0.0296 0-0.06907 0.0205-0.09867 0.0615-0.0296 0.0307-0.04933 0.0922-0.06907 0.16393l-0.0296 0.27665zm0.7992-0.10246c-0.01973 0.0205-0.03946 0.041-0.0592 0.0512-0.0099 0.0205-0.0296 0.0307-0.04933 0.041s-0.03947 0.0103-0.0592 0.0205h-0.0592c-0.0296 0-0.0592 0-0.0888-0.0205-0.01973-0.0102-0.04933-0.0205-0.0592-0.041-0.01973-0.0307-0.0296-0.0512-0.03946-0.082-0.0099-0.0307-0.01973-0.0615-0.01973-0.10246 0-0.041 0.0099-0.0922 0.0296-0.1332 0.0099-0.0512 0.0296-0.082 0.0592-0.12295 0.01973-0.0307 0.0592-0.0615 0.0888-0.082 0.03946-0.0205 0.07893-0.0307 0.1184-0.0307 0.03946 0 0.06907 0.0102 0.09867 0.0205 0.0296 0.0205 0.04933 0.041 0.06907 0.0615l-0.0296 0.041c-0.0099 0-0.0099 0.0102-0.0099 0.0102h-0.0099c-0.0099 0-0.01973 0-0.01973-0.0102-0.0099 0-0.0099-0.0103-0.01973-0.0103-0.0099-0.0102-0.01974-0.0102-0.0296-0.0205-0.0099 0-0.0296-0.0102-0.04933-0.0102-0.0296 0-0.04933 0.0102-0.07894 0.0307-0.01973 0.0102-0.03946 0.0307-0.0592 0.0615-0.0099 0.0205-0.0296 0.0512-0.03947 0.082-0.0099 0.041-0.0099 0.0717-0.0099 0.11271v0.0717c0.0099 0.0205 0.01973 0.041 0.0296 0.0512 0.0099 0.0103 0.01974 0.0205 0.03947 0.0307 0.0099 0.0103 0.0296 0.0103 0.04933 0.0103h0.04933c0.0099-0.0103 0.01974-0.0103 0.0296-0.0205 0.0099 0 0.01973-0.0102 0.0296-0.0102 0.0099-0.0103 0.01973-0.0205 0.01973-0.0205 0.0099-0.0103 0.0099-0.0103 0.01974-0.0205h0.01973s0.0099 0 0.01973 0.0102zm0.06907 0.10246 0.10854-0.87092h0.09867l-0.04933 0.40984c0.0296-0.0512 0.0592-0.082 0.09867-0.10246 0.03946-0.0307 0.07893-0.041 0.1184-0.041 0.03947 0 0.06907 0.0102 0.09867 0.041 0.01973 0.0307 0.0296 0.082 0.0296 0.1332v0.0307 0.0205l-0.03946 0.37911h-0.10854l0.04933-0.37911v-0.0205-0.0205c0-0.0307-0.0099-0.0615-0.01973-0.0717-0.0099-0.0205-0.0296-0.0205-0.04933-0.0205s-0.03947 0-0.0592 0.0103c-0.0099 0.0102-0.0296 0.0205-0.04933 0.041s-0.0296 0.041-0.04933 0.0615c-0.0099 0.0307-0.0296 0.0512-0.03947 0.082l-0.0296 0.31763z" fill="#141516"/>
  </g>
 </g>
</svg>
