<?xml version="1.0" encoding="UTF-8"?>
<svg width="50.833mm" height="35.964mm" version="1.1" viewBox="0 0 50.833 35.964" xmlns="http://www.w3.org/2000/svg">
 <g transform="translate(-101.55 -152.21)" fill-rule="evenodd">
  <g fill="#282b2e">
   <path d="m149.37 157.93c-0.33546 0-0.61173-0.28689-0.61173-0.63526s0.27627-0.62501 0.61173-0.62501c0.33547 0 0.60187 0.27664 0.60187 0.62501s-0.2664 0.63526-0.60187 0.63526z"/>
   <path d="m102.07 157.48c-0.28613 0-0.52293-0.23566-0.52293-0.5328s0.2368-0.54304 0.52293-0.54304c0.28614 0 0.51307 0.2459 0.51307 0.54304s-0.22693 0.5328-0.51307 0.5328z"/>
   <path d="m151.46 178.25c-0.51307 0-0.92747-0.43034-0.92747-0.95289 0-0.5328 0.4144-0.96314 0.92747-0.96314 0.5032 0 0.9176 0.43034 0.9176 0.96314 0 0.52255-0.4144 0.95289-0.9176 0.95289z"/>
  </g>
  <path d="m103.79 171.03c-0.49333 0-0.89786-0.40985-0.89786-0.9324 0-0.51231 0.40453-0.92216 0.89786-0.92216 0.49334 0 0.89787 0.40985 0.89787 0.92216 0 0.52255-0.40453 0.9324-0.89787 0.9324z" fill="#141516"/>
  <g fill="#262626">
   <path d="m107.54 188.18c-0.16774 0-0.30587-0.14344-0.30587-0.31763 0-0.17418 0.13813-0.31763 0.30587-0.31763 0.16773 0 0.296 0.14345 0.296 0.31763 0 0.17419-0.12827 0.31763-0.296 0.31763z"/>
   <path d="m105.94 176.21c-0.25654 0-0.46374-0.21517-0.46374-0.48157 0-0.25615 0.2072-0.47132 0.46374-0.47132 0.25653 0 0.46373 0.21517 0.46373 0.47132 0 0.2664-0.2072 0.48157-0.46373 0.48157z"/>
   <path d="m138.19 185.27c-0.16773 0-0.30587-0.14344-0.30587-0.31763 0-0.17418 0.13814-0.31763 0.30587-0.31763s0.296 0.14345 0.296 0.31763c0 0.17419-0.12827 0.31763-0.296 0.31763z"/>
  </g>
  <path d="m149.07 165.98c-0.2664 0-0.4736-0.21517-0.4736-0.49181 0-0.2664 0.2072-0.49182 0.4736-0.49182 0.25653 0 0.4736 0.22542 0.4736 0.49182 0 0.27664-0.21707 0.49181-0.4736 0.49181z" fill="#282b2e"/>
  <path d="m129.57 186.94c-0.3848 0-0.69066-0.31764-0.69066-0.71724 0-0.38935 0.30586-0.70698 0.69066-0.70698 0.37494 0 0.6808 0.31763 0.6808 0.70698 0 0.3996-0.30586 0.71724-0.6808 0.71724z" fill="#282b2e"/>
  <g fill="#252320">
   <path d="m113.62 155.97c-0.12826 0-0.22693-0.10246-0.22693-0.23566s0.0987-0.23566 0.22693-0.23566c0.1184 0 0.21707 0.10246 0.21707 0.23566s-0.0987 0.23566-0.21707 0.23566z"/>
   <path d="m112.91 178.17c-0.10853 0-0.19733-0.0922-0.19733-0.20492 0-0.11271 0.0888-0.20493 0.19733-0.20493 0.10854 0 0.19734 0.0922 0.19734 0.20493 0 0.1127-0.0888 0.20492-0.19734 0.20492z"/>
   <path d="m125.49 152.59c-0.0987 0-0.18746-0.082-0.18746-0.18443 0-0.11271 0.0888-0.19468 0.18746-0.19468 0.0987 0 0.18747 0.082 0.18747 0.19468 0 0.10246-0.0888 0.18443-0.18747 0.18443z"/>
  </g>
 </g>
</svg>
